<?xml version="1.0" encoding="UTF-8"?>
<svg version="1.1" xmlns="http://www.w3.org/2000/svg" width="1014" height="1056">
<path d="M0 0 C334.62 0 669.24 0 1014 0 C1014 348.48 1014 696.96 1014 1056 C679.38 1056 344.76 1056 0 1056 C0 707.52 0 359.04 0 0 Z " fill="#FEFEFE" transform="translate(0,0)"/>
<path d="M0 0 C20.15258362 3.6029177 39.78840833 12.1043033 59 19 C58.94457031 20.15757812 58.88914062 21.31515625 58.83203125 22.5078125 C58.82264681 24.04686016 58.81629705 25.58592841 58.8125 27.125 C58.74579102 28.26582031 58.74579102 28.26582031 58.67773438 29.4296875 C58.60808398 32.08268908 58.60808398 32.08268908 60 36 C63.63 37.98 67.26 39.96 71 42 C71 29.79 71 17.58 71 5 C74.63 5.99 78.26 6.98 82 8 C81.80535156 9.19753906 81.61070312 10.39507812 81.41015625 11.62890625 C80.89343653 17.02328196 80.78180375 21.96306907 83 27 C88.48745922 32.93078365 96.05276626 36.58796723 103.08105469 40.39648438 C106.89748072 42.49302889 110.50402523 44.83725699 114.125 47.25 C115.46252784 48.11615091 116.80113239 48.98064069 118.140625 49.84375 C122.13886953 52.43475213 126.12509509 55.04385302 130.109375 57.65625 C130.74475189 58.07283875 131.38012878 58.48942749 132.03475952 58.91864014 C135.2195303 61.0072454 138.40346975 63.09710682 141.58642578 65.18847656 C153.41029229 72.99138766 153.41029229 72.99138766 165.44360352 80.46313477 C167.32512957 81.59458885 169.16791235 82.7901308 171 84 C171 84.66 171 85.32 171 86 C159.11705015 86.34903296 147.2353373 86.61480253 135.34828758 86.77718258 C129.82701763 86.8551606 124.3092773 86.96072231 118.79003906 87.1315918 C113.45341549 87.29575536 108.12016324 87.38449427 102.78120804 87.42315865 C100.75474607 87.45067195 98.7284492 87.504407 96.70344162 87.58595085 C80.05413702 88.22913066 80.05413702 88.22913066 73.675354 82.71243286 C70.57438854 79.60464508 67.85665541 76.27528117 65.2710762 72.73134041 C63.70358325 70.596249 61.9738808 68.64112828 60.1875 66.6875 C59.66414063 66.08164062 59.14078125 65.47578125 58.6015625 64.8515625 C51.910499 57.11604031 44.89936976 49.6880655 37.87866211 42.25366211 C33.55060791 37.66475284 29.27509386 33.03770074 25.078125 28.328125 C22.69606808 25.65950484 20.28624666 23.01726431 17.875 20.375 C11.79149643 13.68879638 5.87072939 6.87304905 0 0 Z " fill="#C1030B" transform="translate(203,434)"/>
<path d="M0 0 C11.9002229 -0.34885719 23.79921408 -0.6147147 35.70352459 -0.77718258 C41.23266426 -0.85519829 46.75828585 -0.96083091 52.28540039 -1.1315918 C57.62850269 -1.29561827 62.96824221 -1.38446608 68.3136692 -1.42315865 C70.34374749 -1.45069612 72.37365869 -1.50447985 74.40228844 -1.58595085 C91.10325369 -2.22946904 91.10325369 -2.22946904 97.08822632 3.28468323 C99.97914522 6.3990147 102.44951467 9.72987547 104.80457878 13.2615509 C106.3460472 15.50324139 108.12304815 17.44526487 110.015625 19.39453125 C110.55928711 19.97170898 111.10294922 20.54888672 111.66308594 21.14355469 C112.18676758 21.69430664 112.71044922 22.24505859 113.25 22.8125 C114.42775349 24.06317134 115.60483714 25.3144738 116.78125 26.56640625 C117.33296875 27.15309082 117.8846875 27.73977539 118.453125 28.34423828 C121.29797364 31.38933984 124.07482239 34.49450386 126.8515625 37.6015625 C129.26030378 40.29059367 131.6918545 42.95803872 134.125 45.625 C136.86926449 48.63781636 139.59020429 51.66249845 142.25 54.75 C145.09224829 58.03003535 148.04773188 61.19068009 151.02392578 64.34838867 C157.31419711 71.02277971 163.32910186 77.78385712 169 85 C167 86 167 86 165.25248718 85.61567688 C164.55001358 85.37681259 163.84753998 85.1379483 163.1237793 84.8918457 C161.9256385 84.49066277 161.9256385 84.49066277 160.70329285 84.08137512 C159.83569839 83.78252914 158.96810394 83.48368317 158.07421875 83.17578125 C157.17564651 82.87310837 156.27707428 82.57043549 155.35127258 82.2585907 C152.46092015 81.28357479 149.57414389 80.29843542 146.6875 79.3125 C142.92151233 78.03497711 139.15413091 76.76159588 135.38671875 75.48828125 C134.02811234 75.0272551 134.02811234 75.0272551 132.64205933 74.55691528 C126.52080291 72.48708857 120.37902744 70.53765662 114.17895508 68.71557617 C112 68 112 68 111 67 C110.84417697 65.65984779 110.74955858 64.31241097 110.68359375 62.96484375 C110.64169922 62.15595703 110.59980469 61.34707031 110.55664062 60.51367188 C110.51732422 59.66353516 110.47800781 58.81339844 110.4375 57.9375 C110.39431641 57.08349609 110.35113281 56.22949219 110.30664062 55.34960938 C110.20023298 53.23327963 110.09958269 51.11666187 110 49 C104.555 46.525 104.555 46.525 99 44 C99 55.88 99 67.76 99 80 C94.6906014 79.2817669 91.83675965 78.69268808 88 77 C88.07863281 75.72125 88.15726562 74.4425 88.23828125 73.125 C88.71946099 63.70346451 88.71946099 63.70346451 84.91796875 55.51953125 C82.13032853 53.88874306 79.2957554 52.51226761 76.35595703 51.1796875 C71.30664921 48.65137088 66.6605606 45.39466997 61.9375 42.3125 C59.74562091 40.90495783 57.55291183 39.49870733 55.359375 38.09375 C47.37675631 32.96035634 39.41786646 27.79099901 31.46777344 22.60742188 C28.85788248 20.90742959 26.24564318 19.21109525 23.6328125 17.515625 C22.74247314 16.93772217 21.85213379 16.35981934 20.93481445 15.7644043 C19.25128034 14.67177639 17.56754152 13.5794638 15.88354492 12.48754883 C14.35242246 11.49324063 12.82298362 10.49633405 11.29541016 9.49658203 C9.67636738 8.44098405 8.0503392 7.39606245 6.41943359 6.35888672 C5.5939502 5.82666504 4.7684668 5.29444336 3.91796875 4.74609375 C3.16668701 4.26712646 2.41540527 3.78815918 1.64135742 3.29467773 C1.09970947 2.86743408 0.55806152 2.44019043 0 2 C0 1.34 0 0.68 0 0 Z " fill="#095BA3" transform="translate(104,560)"/>
<path d="M0 0 C2.25642999 1.17928645 3.41745042 2.38996723 5.0234375 4.3671875 C7.90631077 7.81921171 10.85940752 11.17604233 13.8984375 14.4921875 C16.72005121 17.57368668 19.50325583 20.68108257 22.2421875 23.8359375 C25.86165434 27.98422254 29.6128039 31.99580729 33.3984375 35.9921875 C37.79339669 40.63181453 42.10116194 45.32232932 46.29101562 50.1484375 C48.45564964 52.63132269 50.67399936 55.0628669 52.8984375 57.4921875 C55.72421134 60.58950717 58.53062529 63.696229 61.2734375 66.8671875 C64.40869188 70.47793069 67.64788574 73.98568285 70.8984375 77.4921875 C77.98446651 85.15121374 77.98446651 85.15121374 81.0859375 88.6171875 C81.61574219 89.20757813 82.14554688 89.79796875 82.69140625 90.40625 C83.8984375 91.9921875 83.8984375 91.9921875 84.8984375 94.9921875 C86.19754562 94.96998138 87.49665375 94.94777527 88.83512878 94.92489624 C101.1187425 94.72158028 113.40201188 94.57199039 125.68693066 94.47406578 C132.00188378 94.4220267 138.31547136 94.35152114 144.62963867 94.23779297 C150.73114108 94.12859154 156.83133591 94.0692316 162.93374062 94.04341507 C165.25376263 94.02503431 167.57371852 93.98913985 169.89317894 93.93488693 C191.43796442 93.45130259 191.43796442 93.45130259 200.5232954 101.30878258 C201.914505 102.64370728 201.914505 102.64370728 203.8984375 104.9921875 C203.8984375 105.6521875 203.8984375 106.3121875 203.8984375 106.9921875 C188.08629386 107.3202931 172.2750796 107.56661529 156.46037006 107.71755791 C149.11589091 107.78953112 141.77353515 107.88750791 134.43041992 108.04833984 C128.02447853 108.18857764 121.62007527 108.27836024 115.21264142 108.30942643 C111.82383053 108.32757064 108.43941648 108.36968441 105.05202675 108.47240829 C82.79652275 109.07268064 82.79652275 109.07268064 76.40133667 103.93609619 C73.51117066 101.10177975 71.15640069 98.038798 68.97417259 94.63650894 C67.53681232 92.43942312 65.8322139 90.54359063 64.0546875 88.6171875 C63.53132812 88.01132812 63.00796875 87.40546875 62.46875 86.78125 C59.53332245 83.43690718 56.45825851 80.22234906 53.3984375 76.9921875 C49.01344165 72.36307848 44.71742838 67.68231311 40.53710938 62.8671875 C38.20403024 60.1976333 35.80441849 57.5963081 33.3984375 54.9921875 C30.40548673 51.75275844 27.45534407 48.49259838 24.56640625 45.16015625 C20.06120607 39.99116122 15.32396777 35.04800737 10.59570312 30.08398438 C7.19735521 26.49809681 3.90038827 22.92497572 0.8984375 18.9921875 C-2.81347744 19.57739931 -4.63221098 21.0784922 -7.3515625 23.6171875 C-8.22941406 24.43058594 -9.10726562 25.24398438 -10.01171875 26.08203125 C-11.04194096 27.05179202 -12.07186701 28.02186747 -13.1015625 28.9921875 C-14.32904043 30.13973664 -15.55692819 31.28684752 -16.78515625 32.43359375 C-19.51320151 34.983958 -22.23664621 37.53912333 -24.95703125 40.09765625 C-28.82940596 43.73900604 -32.7134575 47.36764794 -36.6015625 50.9921875 C-41.13631674 55.22051517 -45.66404848 59.45614967 -50.18432617 63.69995117 C-57.26164045 70.34408136 -64.36849962 76.95415707 -71.51171875 83.52734375 C-73.15840407 85.04455995 -74.80221681 86.564835 -76.4453125 88.0859375 C-81.54206079 92.80339289 -86.6475789 97.51098401 -91.7890625 102.1796875 C-92.57667969 102.89511719 -93.36429688 103.61054687 -94.17578125 104.34765625 C-97.82136058 107.46081832 -100.50170348 107.09764076 -105.2265625 107.0546875 C-107.14855469 107.04115234 -107.14855469 107.04115234 -109.109375 107.02734375 C-110.09679687 107.01574219 -111.08421875 107.00414062 -112.1015625 106.9921875 C-110.99197847 103.6634354 -110.17611746 102.97729051 -107.5390625 100.8046875 C-103.1537083 97.08378091 -99.12658021 93.09581884 -95.1015625 88.9921875 C-90.53162488 84.33299329 -85.89086804 79.87302733 -80.9453125 75.61328125 C-78.37085803 73.34972489 -75.9968231 70.94516523 -73.6015625 68.4921875 C-70.59188071 65.40998326 -67.55465889 62.48932058 -64.2890625 59.6796875 C-59.84019 55.82735881 -55.72326985 51.68897149 -51.6015625 47.4921875 C-46.88695982 42.69170863 -42.11866013 38.07633328 -37.01660156 33.68896484 C-33.32032268 30.41395997 -29.93309711 26.82521716 -26.5078125 23.27148438 C-25.07457297 21.80937628 -23.59193708 20.39601058 -22.1015625 18.9921875 C-21.4415625 18.9921875 -20.7815625 18.9921875 -20.1015625 18.9921875 C-20.1015625 18.3321875 -20.1015625 17.6721875 -20.1015625 16.9921875 C-18.703125 15.6171875 -18.703125 15.6171875 -16.7265625 13.9921875 C-12.26913598 10.24858373 -8.34485189 6.10912505 -4.3984375 1.8359375 C-2.1015625 -0.0078125 -2.1015625 -0.0078125 0 0 Z " fill="#1E1C1F" transform="translate(192.1015625,430.0078125)"/>
<path d="M0 0 C15.86422434 -0.23409217 31.72797894 -0.4101799 47.59350395 -0.51812172 C54.96103689 -0.56958446 62.32749389 -0.63968177 69.69433594 -0.75439453 C76.11891877 -0.85438681 82.54272217 -0.9186559 88.96806157 -0.94088495 C92.36755694 -0.95387106 95.76482358 -0.98415502 99.16360092 -1.05730057 C121.53722722 -1.48586526 121.53722722 -1.48586526 126.83013916 2.16314697 C129.36280594 4.65656087 131.16434684 6.97401437 133 10 C134.06068343 11.24876438 135.13988957 12.48246198 136.25 13.6875 C136.79398438 14.32300781 137.33796875 14.95851563 137.8984375 15.61328125 C140.82120613 18.93263373 143.84964487 22.14925593 146.875 25.375 C151.54828096 30.3607707 156.17273843 35.38101958 160.7265625 40.4765625 C163.45837652 43.50878219 166.22717827 46.50531787 169 49.5 C174.04959454 54.95616671 179.04122488 60.46103912 184 66 C190.61675308 73.37976605 197.29228725 80.70301155 204 88 C207.25207092 86.58261511 209.31361067 84.87473588 211.75 82.3125 C214.4302304 79.55768063 217.14581567 76.94075141 220.0625 74.4375 C223.23868345 71.70709669 226.19136012 68.83383252 229.12329102 65.84545898 C230.94243002 64.05661136 232.81671619 62.38286727 234.75 60.71875 C238.7552123 57.23579679 242.64090304 53.6433954 246.5 50 C247.9062158 48.67704698 249.3124668 47.35413137 250.71875 46.03125 C251.78416016 45.02771484 251.78416016 45.02771484 252.87109375 44.00390625 C256.24237109 40.83057547 259.62137815 37.66550686 263 34.5 C267.72031969 30.07596616 272.44021314 25.65149261 277.15258789 21.21899414 C278.49995686 19.9566541 279.85196211 18.69924296 281.20874023 17.44702148 C284.37532013 14.51782807 287.44460352 11.56470731 290.3671875 8.390625 C295.14567721 3.33525759 298.95537525 -0.55952104 306.24389648 -0.81079102 C309.1938017 -0.72410078 312.08249013 -0.4358106 315 0 C313.63756514 3.08841009 312.13517134 5.05847107 309.6484375 7.328125 C308.96966553 7.95533447 308.29089355 8.58254395 307.59155273 9.22875977 C306.86009033 9.89576904 306.12862793 10.56277832 305.375 11.25 C298.59795818 17.51726113 291.99388442 23.91627138 285.53076172 30.50683594 C282.45983343 33.61916453 279.34830461 36.61012858 276.03515625 39.46484375 C271.81037265 43.10823981 267.90470445 47.01903179 264 51 C259.45014051 55.63872393 254.82985715 60.07556494 249.90625 64.31640625 C246.96787919 66.91156571 244.23655813 69.69519852 241.5 72.5 C238.15257874 75.9308981 234.76996135 79.2379843 231.1328125 82.36328125 C225.84990963 86.92670788 221.04081646 91.94341668 216.1796875 96.94726562 C212.34223922 100.84380505 208.70069549 104.18996279 204 107 C192.06771609 94.14683375 192.06771609 94.14683375 186.69140625 87.94140625 C177.68216863 77.60054921 168.30511381 67.57428047 159 57.5 C138.43854953 35.23892689 138.43854953 35.23892689 129.4375 24.9375 C128.8911087 24.34380112 128.34471741 23.75010223 127.7817688 23.13841248 C126 21 126 21 124.74459839 18.6754303 C122.78000927 15.53591527 121.17809665 13.95994149 118 12 C111.42856491 10.53369143 104.51805932 10.95905173 97.82904434 11.10775566 C94.33824219 11.18457457 90.8509416 11.20552599 87.35934448 11.2124176 C79.94704643 11.23731496 72.53655327 11.33385533 65.125 11.4375 C56.53934063 11.55323669 47.95500339 11.63922966 39.36855698 11.66075325 C35.94073045 11.68321424 32.51619575 11.75438881 29.08914185 11.82798767 C11.88394737 12.01221701 11.88394737 12.01221701 5.63232422 7.14477539 C3.39458169 4.86772518 1.77607494 2.66411241 0 0 Z " fill="#1B1A1B" transform="translate(81,543)"/>
<path d="M0 0 C4.95 0 9.9 0 15 0 C16.96444203 3.53839864 18.9217018 7.08045659 20.875 10.625 C21.43058594 11.62402344 21.98617187 12.62304688 22.55859375 13.65234375 C23.36103516 15.11220703 23.36103516 15.11220703 24.1796875 16.6015625 C24.67194824 17.49182129 25.16420898 18.38208008 25.67138672 19.29931641 C27.06914702 22.14055575 28.06509436 24.97804359 29 28 C32.06021171 25.19133491 33.92958357 22.60281589 35.7265625 18.8671875 C36.2009375 17.89652344 36.6753125 16.92585938 37.1640625 15.92578125 C37.88722656 14.41564453 37.88722656 14.41564453 38.625 12.875 C39.59278413 10.87066813 40.56397707 8.86797754 41.5390625 6.8671875 C41.96396973 5.98144043 42.38887695 5.09569336 42.82666016 4.18310547 C44 2 44 2 46 0 C48.74485593 -0.14507695 51.38480543 -0.18652423 54.125 -0.125 C54.87910156 -0.11597656 55.63320313 -0.10695313 56.41015625 -0.09765625 C58.27357254 -0.0740687 60.13682593 -0.03819719 62 0 C61.67657623 0.57111511 61.35315247 1.14223022 61.01992798 1.73065186 C59.94032253 4.13278286 59.72838608 5.6959703 59.68115234 8.30957031 C59.66128265 9.15013977 59.64141296 9.99070923 59.62094116 10.85675049 C59.60361435 12.20383087 59.60361435 12.20383087 59.5859375 13.578125 C59.56657135 14.5046991 59.5472052 15.43127319 59.5272522 16.38592529 C59.46755233 19.34052371 59.42110932 22.29516129 59.375 25.25 C59.3368114 27.25522517 59.29775915 29.26043409 59.2578125 31.265625 C59.1618586 36.17695111 59.07779197 41.088354 59 46 C59.66 46 60.32 46 61 46 C61.09152344 45.165896 61.18304687 44.33179199 61.27734375 43.47241211 C62.11647295 39.44033961 63.70525043 36.07732482 65.5625 32.44140625 C66.28391851 30.98896425 67.00527063 29.53648927 67.7265625 28.08398438 C68.86265908 25.82038313 70.0020314 23.55847666 71.14355469 21.29760742 C72.24985507 19.09958841 73.34405108 16.89583976 74.4375 14.69140625 C74.77918213 14.02452286 75.12086426 13.35763947 75.47290039 12.67054749 C77.58735219 8.396742 78.563247 4.75468688 79 0 C81.27024968 -0.08097324 83.54132075 -0.13917704 85.8125 -0.1875 C87.07707031 -0.22230469 88.34164062 -0.25710938 89.64453125 -0.29296875 C93 0 93 0 94.54711914 1.21362305 C96.26185551 3.32196215 97.39608403 5.43782719 98.6015625 7.875 C99.08786133 8.85194824 99.57416016 9.82889648 100.07519531 10.83544922 C100.58663086 11.87975098 101.09806641 12.92405273 101.625 14 C102.1519043 15.06621582 102.67880859 16.13243164 103.22167969 17.23095703 C104.82366204 20.48289398 106.41433453 23.74007883 108 27 C108.7120459 28.46324707 108.7120459 28.46324707 109.43847656 29.95605469 C110.71637309 32.59223602 111.98596078 35.2321499 113.25 37.875 C113.63236816 38.67035156 114.01473633 39.46570313 114.40869141 40.28515625 C117 45.76094627 117 45.76094627 117 48 C111.06 48 105.12 48 99 48 C99 45.69 99 43.38 99 41 C91.08 41 83.16 41 75 41 C75 43.64 75 46.28 75 49 C64.77 49 54.54 49 44 49 C44.33 41.41 44.66 33.82 45 26 C44.34 26 43.68 26 43 26 C42.75507812 26.80695313 42.51015625 27.61390625 42.2578125 28.4453125 C40.73868763 32.73849149 38.84272902 36.77266742 36.875 40.875 C36.50246094 41.65875 36.12992188 42.4425 35.74609375 43.25 C34.83381003 45.16813499 33.91733016 47.08427329 33 49 C29.72265625 49.328125 29.72265625 49.328125 26 49 C23.99609375 46.796875 23.99609375 46.796875 22.4375 43.75 C21.86773438 42.66460938 21.29796875 41.57921875 20.7109375 40.4609375 C20.14632812 39.31882812 19.58171875 38.17671875 19 37 C18.41476562 35.87851562 17.82953125 34.75703125 17.2265625 33.6015625 C13 25.40639671 13 25.40639671 13 23 C12.34 23 11.68 23 11 23 C11.11004161 26.58395685 11.24063297 30.16687917 11.375 33.75 C11.4059375 34.76578125 11.436875 35.7815625 11.46875 36.828125 C11.50742187 37.8078125 11.54609375 38.7875 11.5859375 39.796875 C11.6173584 40.69760742 11.6487793 41.59833984 11.68115234 42.52636719 C11.90938791 45.36744199 11.90938791 45.36744199 14 49 C9.05 49 4.1 49 -1 49 C-0.67 48.01 -0.34 47.02 0 46 C0.08669529 44.48092376 0.117694 42.95830999 0.11352539 41.43676758 C0.11341209 40.05567558 0.11341209 40.05567558 0.11329651 38.64668274 C0.10555458 37.16061775 0.10555458 37.16061775 0.09765625 35.64453125 C0.0962413 34.62775803 0.09482635 33.6109848 0.09336853 32.56340027 C0.08776707 29.31307036 0.07521432 26.06280912 0.0625 22.8125 C0.05748519 20.61002704 0.05292225 18.40755299 0.04882812 16.20507812 C0.03779716 10.80335893 0.02053154 5.40169111 0 0 Z " fill="#212021" transform="translate(601,483)"/>
<path d="M0 0 C0.83942139 0.00572021 1.67884277 0.01144043 2.54370117 0.01733398 C10.24385692 0.23900174 15.80652907 1.91316582 21.54296875 7.21484375 C27.58104202 13.76923683 28.23922097 20.10919415 27.9921875 28.83203125 C27.32512667 36.86241735 23.76883471 40.93941565 17.78515625 46.0546875 C12.19138534 49.90886857 6.97186089 49.86579294 0.375 49.875 C-0.53701172 49.89949219 -1.44902344 49.92398438 -2.38867188 49.94921875 C-9.58376597 49.98016539 -14.84054057 48.4960731 -20.3359375 43.75390625 C-20.78195312 43.19574219 -21.22796875 42.63757813 -21.6875 42.0625 C-22.14898437 41.50691406 -22.61046875 40.95132813 -23.0859375 40.37890625 C-27.81278166 33.13810357 -27.31870582 23.83798616 -26.3125 15.5 C-24.10545099 8.92445316 -19.29060529 5.02113616 -13.23046875 1.92578125 C-8.8540023 0.09673349 -4.69716805 -0.03700771 0 0 Z " fill="#1F1D20" transform="translate(440.3125,482.5)"/>
<path d="M0 0 C4.05264618 -0.07526343 8.1050108 -0.12911541 12.15820312 -0.16479492 C13.53132226 -0.17969923 14.90439539 -0.20002997 16.27734375 -0.22631836 C38.18795576 -0.63473986 38.18795576 -0.63473986 44.6875 5.5625 C47.48158432 10.75151373 47.59652516 15.12588422 47 21 C45.17070346 24.86184826 44.05968482 26.47015759 40.25 28.375 C39.5075 28.58125 38.765 28.7875 38 29 C40.54909522 34.39231681 43.39441232 39.23859572 46.828125 44.1171875 C48 46 48 46 48 48 C42.06 48 36.12 48 30 48 C29.01 44.535 29.01 44.535 28 41 C26.69475434 37.99842383 25.25170658 35.39170907 23 33 C19.33054374 31.86521513 19.33054374 31.86521513 16 32 C16.14063135 34.29199177 16.28765943 36.58359186 16.4375 38.875 C16.55931641 40.78925781 16.55931641 40.78925781 16.68359375 42.7421875 C16.79206027 45.88300152 16.79206027 45.88300152 18 48 C12.39 48 6.78 48 1 48 C1.00523682 46.65252686 1.01047363 45.30505371 1.01586914 43.91674805 C1.03395024 38.924079 1.04544344 33.93141287 1.05493164 28.9387207 C1.05996472 26.77660638 1.06679169 24.61449547 1.07543945 22.45239258 C1.08754979 19.34715941 1.09323852 16.2419712 1.09765625 13.13671875 C1.10281754 12.16788254 1.10797882 11.19904633 1.11329651 10.20085144 C1.11337204 9.3001442 1.11344757 8.39943695 1.11352539 7.47143555 C1.115746 6.67867722 1.11796661 5.88591888 1.12025452 5.06913757 C1.07865777 2.80155302 1.07865777 2.80155302 0 0 Z " fill="#201F20" transform="translate(720,483)"/>
<path d="M0 0 C15.86422434 -0.23409217 31.72797894 -0.4101799 47.59350395 -0.51812172 C54.96103689 -0.56958446 62.32749389 -0.63968177 69.69433594 -0.75439453 C76.11891877 -0.85438681 82.54272217 -0.9186559 88.96806157 -0.94088495 C92.36755694 -0.95387106 95.76482358 -0.98415502 99.16360092 -1.05730057 C121.5314869 -1.4857553 121.5314869 -1.4857553 126.81036377 2.14337158 C129.34826107 4.64171036 131.14195554 6.97900401 133 10 C134.24765643 11.43712046 135.51488162 12.85782604 136.8125 14.25 C137.35648438 14.89195312 137.90046875 15.53390625 138.4609375 16.1953125 C139.45646899 17.36266161 140.48139191 18.50582805 141.5390625 19.6171875 C142.9375 21.125 142.9375 21.125 145 24 C144.95875 24.99 144.9175 25.98 144.875 27 C144.67301922 29.98401979 144.67301922 29.98401979 146.43359375 31.53515625 C147.69358677 32.55939174 148.9660437 33.56846932 150.25 34.5625 C153.24252671 37.02064694 154.61642074 39.90405925 155.875 43.5 C156.92328874 46.24907977 156.92328874 46.24907977 159.6875 48.5625 C160.450625 49.366875 161.21375 50.17125 162 51 C161.8125 53.3125 161.8125 53.3125 161 55 C161 54.34 161 53.68 161 53 C160.34 53 159.68 53 159 53 C159 52.01 159 51.02 159 50 C157.68 50 156.36 50 155 50 C154.95875 49.443125 154.9175 48.88625 154.875 48.3125 C153.5491043 44.80834709 150.90895832 43.25592686 148 41 C147.34 40.34 146.68 39.68 146 39 C146.33 38.34 146.66 37.68 147 37 C143.60298823 35.56517634 143.60298823 35.56517634 140.04663086 34.64526367 C137.43797003 33.82280267 136.34716037 32.6206095 134.50390625 30.61328125 C133.86259766 29.92169922 133.22128906 29.23011719 132.56054688 28.51757812 C131.57151367 27.42606445 131.57151367 27.42606445 130.5625 26.3125 C129.90701172 25.60416016 129.25152344 24.89582031 128.57617188 24.16601562 C125.81395228 21.16553035 123.22479023 18.35046729 121.0161438 14.90699768 C119.34837886 12.9228953 118.41385506 12.10513503 115.88124371 11.4617548 C113.19008265 11.27706363 110.55734945 11.28418545 107.8605957 11.35400391 C106.33277718 11.35733482 106.33277718 11.35733482 104.77409363 11.36073303 C102.56471924 11.36905348 100.35536361 11.39098961 98.14623451 11.42494583 C94.64349424 11.47704271 91.14255509 11.49009128 87.63945007 11.49252319 C77.68174928 11.50745056 67.72497308 11.60060764 57.76782227 11.70117188 C51.6734941 11.76003531 45.57996719 11.77985202 39.48537254 11.77756882 C36.04452853 11.78887764 32.6064072 11.84643463 29.16609192 11.90493774 C11.88392448 12.01069337 11.88392448 12.01069337 5.62573242 7.13818359 C3.39013079 4.86325761 1.77446212 2.66169318 0 0 Z " fill="#151414" transform="translate(81,543)"/>
<path d="M0 0 C1.67542976 0.28604898 3.34385343 0.61781233 5 1 C5 2.32 5 3.64 5 5 C5.99 5 6.98 5 8 5 C9.60355101 8.50776784 10.22036864 11.14354879 10 15 C8.9171875 14.7525 8.9171875 14.7525 7.8125 14.5 C3.81014768 13.7884707 0.87181256 13.70939581 -3 15 C-2.505 16.485 -2.505 16.485 -2 18 C-14.88221368 31.05895137 -14.88221368 31.05895137 -21.2421875 36.4609375 C-23.69276087 38.60655063 -25.94138769 40.93125414 -28.22265625 43.25390625 C-30.06593574 45.06477643 -31.97822799 46.75321354 -33.9375 48.4375 C-37.38421216 51.40605556 -40.59110859 54.54079104 -43.75 57.8125 C-45.69690226 59.70532164 -47.68446948 61.48689757 -49.734375 63.265625 C-54.01429237 66.98333306 -58.13863223 70.84778957 -62.25 74.75 C-69.10913506 81.23210331 -76.01457365 87.65415489 -83 94 C-83.95261719 94.87011719 -84.90523437 95.74023438 -85.88671875 96.63671875 C-87.24216797 97.86841797 -87.24216797 97.86841797 -88.625 99.125 C-89.81996094 100.21167969 -89.81996094 100.21167969 -91.0390625 101.3203125 C-94.70602816 104.46133887 -97.36360925 104.10578537 -102.125 104.0625 C-104.04699219 104.04896484 -104.04699219 104.04896484 -106.0078125 104.03515625 C-106.99523437 104.02355469 -107.98265625 104.01195312 -109 104 C-107.89041597 100.6712479 -107.07455496 99.98510301 -104.4375 97.8125 C-100.0521458 94.09159341 -96.02501771 90.10363134 -92 86 C-87.43006238 81.34080579 -82.78930554 76.88083983 -77.84375 72.62109375 C-75.26929553 70.35753739 -72.8952606 67.95297773 -70.5 65.5 C-67.49031821 62.41779576 -64.45309639 59.49713308 -61.1875 56.6875 C-56.7386275 52.83517131 -52.62170735 48.69678399 -48.5 44.5 C-43.78539732 39.69952113 -39.01709763 35.08414578 -33.91503906 30.69677734 C-30.21876018 27.42177247 -26.83153461 23.83302966 -23.40625 20.27929688 C-21.97301047 18.81718878 -20.49037458 17.40382308 -19 16 C-18.34 16 -17.68 16 -17 16 C-17 15.34 -17 14.68 -17 14 C-12.67929549 9.54140066 -7.56519866 5.82266986 -2.56640625 2.1640625 C-1.04081335 1.08940642 -1.04081335 1.08940642 0 0 Z " fill="#151415" transform="translate(189,433)"/>
<path d="M0 0 C4.08931682 -0.05001046 8.17851141 -0.08600357 12.26806641 -0.10986328 C13.65481676 -0.11982603 15.04154665 -0.13340118 16.42822266 -0.15087891 C35.9714753 -0.39075999 35.9714753 -0.39075999 42.5078125 3.48828125 C47.16522246 8.74192968 47.82805542 13.04459431 47.43359375 20 C46.72059812 24.93315898 44.99735083 28.92511475 41 32 C36.10152754 34.6790049 31.1064641 34.22457107 25.6875 34.125 C24.75615234 34.11597656 23.82480469 34.10695313 22.86523438 34.09765625 C20.5765564 34.07418263 18.28841328 34.04134729 16 34 C16.14120714 35.93784265 16.28812873 37.87526955 16.4375 39.8125 C16.51871094 40.89144531 16.59992188 41.97039063 16.68359375 43.08203125 C16.90212461 46.05989905 16.90212461 46.05989905 18 49 C12.06 49 6.12 49 0 49 C0.33 48.01 0.66 47.02 1 46 C1.09056044 44.62478069 1.12788713 43.24562868 1.12939453 41.86743164 C1.13254669 41.03969742 1.13569885 40.2119632 1.13894653 39.35914612 C1.1369223 38.46847946 1.13489807 37.57781281 1.1328125 36.66015625 C1.13376923 35.7416539 1.13472595 34.82315155 1.13571167 33.8768158 C1.13639217 31.93423392 1.13454695 29.99164977 1.13037109 28.04907227 C1.12502713 25.07758461 1.13031735 22.10624853 1.13671875 19.13476562 C1.13605783 17.2473955 1.13477637 15.36002547 1.1328125 13.47265625 C1.13483673 12.58401382 1.13686096 11.6953714 1.13894653 10.77980042 C1.13579437 9.94891403 1.13264221 9.11802765 1.12939453 8.26196289 C1.12859894 7.53376846 1.12780334 6.80557404 1.12698364 6.05531311 C0.99562899 3.92925237 0.58038975 2.04544268 0 0 Z " fill="#201F21" transform="translate(472,483)"/>
<path d="M0 0 C2.27024968 -0.08097324 4.54132075 -0.13917704 6.8125 -0.1875 C8.07707031 -0.22230469 9.34164062 -0.25710938 10.64453125 -0.29296875 C14 0 14 0 15.54711914 1.21362305 C17.26185551 3.32196215 18.39608403 5.43782719 19.6015625 7.875 C20.08786133 8.85194824 20.57416016 9.82889648 21.07519531 10.83544922 C21.84234863 12.40190186 21.84234863 12.40190186 22.625 14 C23.1519043 15.06621582 23.67880859 16.13243164 24.22167969 17.23095703 C25.82366204 20.48289398 27.41433453 23.74007883 29 27 C29.7120459 28.46324707 29.7120459 28.46324707 30.43847656 29.95605469 C31.71637309 32.59223602 32.98596078 35.2321499 34.25 37.875 C34.63236816 38.67035156 35.01473633 39.46570313 35.40869141 40.28515625 C38 45.76094627 38 45.76094627 38 48 C32.06 48 26.12 48 20 48 C20 45.69 20 43.38 20 41 C12.08 41 4.16 41 -4 41 C-4 43.64 -4 46.28 -4 49 C-14.23 49 -24.46 49 -35 49 C-35 48.01 -35 47.02 -35 46 C-30.38 46 -25.76 46 -21 46 C-20.67 44.68 -20.34 43.36 -20 42 C-20 43.32 -20 44.64 -20 46 C-19.34 46 -18.68 46 -18 46 C-17.90847656 45.165896 -17.81695313 44.33179199 -17.72265625 43.47241211 C-16.88352705 39.44033961 -15.29474957 36.07732482 -13.4375 32.44140625 C-12.71608149 30.98896425 -11.99472937 29.53648927 -11.2734375 28.08398438 C-10.13734092 25.82038313 -8.9979686 23.55847666 -7.85644531 21.29760742 C-6.75014493 19.09958841 -5.65594892 16.89583976 -4.5625 14.69140625 C-4.22081787 14.02452286 -3.87913574 13.35763947 -3.52709961 12.67054749 C-1.41264781 8.396742 -0.436753 4.75468688 0 0 Z " fill="#222123" transform="translate(680,483)"/>
<path d="M0 0 C12.00511855 -1.21400075 12.00511855 -1.21400075 16.46484375 1.5 C18.49806352 3.56140302 20.25445154 5.69111544 22 8 C23.13810847 9.2984783 24.28387812 10.59028472 25.4375 11.875 C25.994375 12.52210938 26.55125 13.16921875 27.125 13.8359375 C30.68674717 17.94678736 34.35529477 21.96278805 38 26 C38 17.75 38 9.5 38 1 C42.62 1 47.24 1 52 1 C52 1.66 52 2.32 52 3 C51.34 3 50.68 3 50 3 C50 18.18 50 33.36 50 49 C40 49 40 49 36.42578125 46.4375 C35.36070105 45.31701578 34.32323421 44.1697423 33.3125 43 C32.76142578 42.40566162 32.21035156 41.81132324 31.64257812 41.19897461 C30.06755417 39.48843723 28.53075761 37.75011198 27 36 C25.90751953 34.79537109 25.90751953 34.79537109 24.79296875 33.56640625 C22.6458059 31.16663601 20.58154306 28.71094808 18.54296875 26.21875 C16.1491075 23.16675991 16.1491075 23.16675991 13 21 C13 29.25 13 37.5 13 46 C13.66 46 14.32 46 15 46 C15 46.66 15 47.32 15 48 C10.38 48 5.76 48 1 48 C1.33 47.34 1.66 46.68 2 46 C2.08934406 44.58026727 2.11758978 43.15642209 2.11352539 41.73388672 C2.11344986 40.85312469 2.11337433 39.97236267 2.11329651 39.06491089 C2.10813522 38.11278717 2.10297394 37.16066345 2.09765625 36.1796875 C2.0962413 35.20589142 2.09482635 34.23209534 2.09336853 33.22879028 C2.08775973 30.11082927 2.07520573 26.9929394 2.0625 23.875 C2.05748613 21.76432395 2.05292303 19.65364678 2.04882812 17.54296875 C2.03778745 12.36195479 2.02104073 7.18098248 2 2 C1.34 2 0.68 2 0 2 C0 1.34 0 0.68 0 0 Z " fill="#1C1B1D" transform="translate(821,483)"/>
<path d="M0 0 C6.1055471 -0.02464513 12.21106551 -0.04283371 18.31665039 -0.05493164 C20.39543156 -0.05997288 22.47420916 -0.06680574 24.55297852 -0.07543945 C27.53402586 -0.08751422 30.51502649 -0.09323024 33.49609375 -0.09765625 C34.89921059 -0.10539818 34.89921059 -0.10539818 36.33067322 -0.11329651 C37.19149002 -0.11337204 38.05230682 -0.11344757 38.93920898 -0.11352539 C40.08171364 -0.11685631 40.08171364 -0.11685631 41.24729919 -0.12025452 C43 0 43 0 44 1 C44.07244053 3.01964199 44.08377188 5.04167124 44.0625 7.0625 C44.05347656 8.16722656 44.04445313 9.27195312 44.03515625 10.41015625 C44.02355469 11.26480469 44.01195312 12.11945313 44 13 C43.01 12.67 42.02 12.34 41 12 C41 11.34 41 10.68 41 10 C32.75 10 24.5 10 16 10 C16 13.3 16 16.6 16 20 C21.94 19.67 27.88 19.34 34 19 C34 22.96 34 26.92 34 31 C33.34 30.67 32.68 30.34 32 30 C29.28737884 29.7677354 26.59226874 29.58063765 23.875 29.4375 C22.74384766 29.37272461 22.74384766 29.37272461 21.58984375 29.30664062 C19.72678112 29.2005168 17.86341476 29.09974999 16 29 C16 32.3 16 35.6 16 39 C20.10444167 38.86132739 24.2084704 38.71283897 28.3125 38.5625 C29.47974609 38.52318359 30.64699219 38.48386719 31.84960938 38.44335938 C32.96787109 38.40146484 34.08613281 38.35957031 35.23828125 38.31640625 C36.7857605 38.26141968 36.7857605 38.26141968 38.36450195 38.20532227 C41.10748258 38.09838758 41.10748258 38.09838758 44 37 C44 40.63 44 44.26 44 48 C29.81 48 15.62 48 1 48 C1.01160156 44.87015625 1.02320313 41.7403125 1.03515625 38.515625 C1.04295519 35.48405051 1.04902719 32.45247714 1.05493164 29.42089844 C1.05996013 27.31412251 1.06678376 25.20735008 1.07543945 23.10058594 C1.08756989 20.07225686 1.09324317 17.04397394 1.09765625 14.015625 C1.10281754 13.07382385 1.10797882 12.13202271 1.11329651 11.16168213 C1.11337204 10.28107117 1.11344757 9.40046021 1.11352539 8.49316406 C1.115746 7.72039124 1.11796661 6.94761841 1.12025452 6.15142822 C0.99903582 3.98275023 0.59739699 2.08363076 0 0 Z " fill="#1D1C1E" transform="translate(773,483)"/>
<path d="M0 0 C12.30926619 -0.209181 24.61810475 -0.36877342 36.92879105 -0.46630955 C42.64620306 -0.51313971 48.36239286 -0.57658554 54.07910156 -0.67895508 C59.60352205 -0.77725423 65.12677241 -0.83066407 70.65200043 -0.85389519 C72.7523311 -0.87043468 74.85260278 -0.90273328 76.95243073 -0.95157051 C88.72872396 -1.21439121 97.0578919 -1.13952656 106.15447998 6.86683655 C108 9 108 9 108 11 C67.41 11 26.82 11 -15 11 C-12.64893617 5.12234043 -12.64893617 5.12234043 -8 3 C-5.34528282 2.21195779 -2.70840661 1.59676756 0 1 C0 0.67 0 0.34 0 0 Z " fill="#1D1C1D" transform="translate(288,526)"/>
<path d="M0 0 C15.51 0 31.02 0 47 0 C47 4.62 47 9.24 47 14 C46.34 13.67 45.68 13.34 45 13 C38.07 12.505 38.07 12.505 31 12 C31.495 29.82 31.495 29.82 32 48 C26.39 48 20.78 48 15 48 C15.33 36.12 15.66 24.24 16 12 C8.08 12.495 8.08 12.495 0 13 C0 8.71 0 4.42 0 0 Z " fill="#222123" transform="translate(524,483)"/>
<path d="M0 0 C15.84 0 31.68 0 48 0 C48 4.29 48 8.58 48 13 C47.01 12.67 46.02 12.34 45 12 C42.60745424 11.77439324 40.21071877 11.59151405 37.8125 11.4375 C36.54019531 11.35371094 35.26789062 11.26992188 33.95703125 11.18359375 C32.49330078 11.09271484 32.49330078 11.09271484 31 11 C31.11811006 15.80567423 31.24234823 20.61113568 31.37231445 25.41650391 C31.41567538 27.05187653 31.45734961 28.68729477 31.49731445 30.32275391 C31.55498912 32.67103841 31.61869129 35.01909304 31.68359375 37.3671875 C31.70030624 38.10057343 31.71701874 38.83395935 31.73423767 39.58956909 C31.78637962 43.42202308 31.78637962 43.42202308 33 47 C27.06 47 21.12 47 15 47 C15 46.34 15 45.68 15 45 C15.66 45 16.32 45 17 45 C16.67 34.11 16.34 23.22 16 12 C9.07 11.505 9.07 11.505 2 11 C2 11.66 2 12.32 2 13 C1.34 13 0.68 13 0 13 C0 8.71 0 4.42 0 0 Z " fill="#1A191A" transform="translate(878,484)"/>
<path d="M0 0 C5.94 0 11.88 0 18 0 C18 15.84 18 31.68 18 48 C12.06 48 6.12 48 0 48 C0.33 47.34 0.66 46.68 1 46 C1.09410335 44.62697532 1.1279354 43.24953594 1.12939453 41.87329102 C1.13254669 41.02223282 1.13569885 40.17117462 1.13894653 39.29432678 C1.1369223 38.37348801 1.13489807 37.45264923 1.1328125 36.50390625 C1.13376923 35.55942123 1.13472595 34.61493622 1.13571167 33.64183044 C1.13639293 31.64199761 1.13454242 29.64216258 1.13037109 27.64233398 C1.12502801 24.57856274 1.13031486 21.5149385 1.13671875 18.45117188 C1.13605784 16.51041634 1.13477642 14.5696609 1.1328125 12.62890625 C1.13483673 11.71009171 1.13686096 10.79127716 1.13894653 9.84461975 C1.13579437 8.99040939 1.13264221 8.13619904 1.12939453 7.25610352 C1.12859894 6.50490738 1.12780334 5.75371124 1.12698364 4.97975159 C1.07082043 2.78770401 1.07082043 2.78770401 0 0 Z " fill="#161518" transform="translate(576,483)"/>
<path d="M0 0 C-3.13649795 4.80276248 -6.36704196 8.42739439 -10.75390625 12.109375 C-13.2660473 14.22394242 -15.69437637 16.41733583 -18.125 18.625 C-21.68676755 21.83927803 -25.30192576 24.9450691 -29 28 C-39.24241743 36.72150162 -49.00884185 45.92832061 -58.46875 55.48583984 C-61.87164518 58.91052185 -65.34555616 62.18571648 -69.02734375 65.3125 C-72.31917958 68.12848629 -75.50072475 71.06753911 -78.703125 73.984375 C-84.41860465 79 -84.41860465 79 -89 79 C-89.2265625 76.71875 -89.2265625 76.71875 -89 74 C-87.4609375 72.15625 -87.4609375 72.15625 -85.375 70.5 C-84.27865234 69.60667969 -84.27865234 69.60667969 -83.16015625 68.6953125 C-82.44730469 68.13585937 -81.73445313 67.57640625 -81 67 C-77.13139668 63.83721576 -73.49579398 60.57709151 -70 57 C-54.93457944 41.64485981 -54.93457944 41.64485981 -50 40 C-50 39.34 -50 38.68 -50 38 C-48.671875 36.66015625 -48.671875 36.66015625 -46.75 35.0625 C-43.09024325 31.95430233 -39.52711678 28.75708232 -36 25.5 C-28.87913314 18.95728503 -28.87913314 18.95728503 -25.5 15.9375 C-24.9121875 15.41027344 -24.324375 14.88304687 -23.71875 14.33984375 C-21.90419672 12.92531699 -20.08720136 11.95663396 -18 11 C-18 10.34 -18 9.68 -18 9 C-16.28667246 7.41466298 -14.50310953 5.90458785 -12.6875 4.4375 C-11.20830078 3.22900391 -11.20830078 3.22900391 -9.69921875 1.99609375 C-6.09055219 -0.67254389 -4.21763579 -1.30892145 0 0 Z " fill="#D4D6D6" transform="translate(371,544)"/>
<path d="M0 0 C3.45257159 1.69489878 5.40553247 2.81106494 7.13671875 6.2734375 C8.78647736 11.4839873 9.21226754 17.87676885 7.20703125 23.04296875 C5.47274265 25.73410623 3.66778886 27.22147409 1 29 C-2.76012798 29.66702427 -6.24654039 29.72284885 -10 29 C-13.25933076 26.58544742 -15.20434642 23.59130716 -17 20 C-17.14851844 18.06640414 -17.22130833 16.12657903 -17.25 14.1875 C-17.27578125 13.14980469 -17.3015625 12.11210937 -17.328125 11.04296875 C-16.8540504 6.64649121 -15.2098883 4.03196355 -11.875 1.1875 C-7.83218647 -0.48235776 -4.31228008 -0.68328382 0 0 Z " fill="#F9F9F9" transform="translate(445,493)"/>
<path d="M0 0 C1.83111328 -0.03867187 1.83111328 -0.03867187 3.69921875 -0.078125 C8.40677331 0.34937185 11.6949237 1.84114322 15.25 4.9375 C16.87088676 8.46531236 16.35142413 11.57080252 15.3125 15.25 C13.875 17.25 13.875 17.25 12.3125 18.25 C11.6525 18.25 10.9925 18.25 10.3125 18.25 C10.93125 19.3225 11.55 20.395 12.1875 21.5 C13.6448679 24.04780984 15.04174491 26.60259355 16.3125 29.25 C14.9925 29.25 13.6725 29.25 12.3125 29.25 C10.9609375 27.53515625 10.9609375 27.53515625 9.6875 25.3125 C7.80798135 22.56588382 6.93943579 21.43113564 3.703125 20.49609375 C1.21661322 20.27483635 -1.19335951 20.1711339 -3.6875 20.25 C-3.6875 23.22 -3.6875 26.19 -3.6875 29.25 C-5.0075 29.25 -6.3275 29.25 -7.6875 29.25 C-7.71215881 25.28069011 -7.73034023 21.31140966 -7.74243164 17.34204102 C-7.74747057 15.99079614 -7.75430177 14.63955674 -7.76293945 13.28833008 C-7.77502419 11.34979566 -7.78019828 9.411222 -7.78515625 7.47265625 C-7.79039307 6.30484619 -7.79562988 5.13703613 -7.80102539 3.93383789 C-7.58398161 -1.1972639 -4.480861 0.05618634 0 0 Z " fill="#B32434" transform="translate(438.6875,551.75)"/>
<path d="M0 0 C-3.16070498 7.19938355 -10.15462952 12.19538475 -16 17.21875 C-18.08337078 19.0742521 -20.04281207 21.01223101 -22 23 C-25.12251015 26.16486978 -28.35644185 29.11448064 -31.7265625 32.01171875 C-35.08081681 34.94525044 -38.3460337 37.97422907 -41.61230469 41.00512695 C-44.04268278 43.24952333 -46.50365276 45.41606097 -49.0546875 47.5234375 C-51.87017859 49.89083982 -54.42086327 52.38018288 -57 55 C-65.61347336 63.14454501 -74.46599731 70.93777579 -84 78 C-84.66 77.67 -85.32 77.34 -86 77 C-85.41992188 76.35933594 -84.83984375 75.71867188 -84.2421875 75.05859375 C-83.46101563 74.19363281 -82.67984375 73.32867188 -81.875 72.4375 C-81.04742187 71.52355469 -80.21984375 70.60960937 -79.3671875 69.66796875 C-77.50555697 67.56979441 -75.74464966 65.44313305 -74 63.25 C-71.88059487 60.74472492 -69.79881526 59.14045561 -67 57.4375 C-59.6762609 52.85860349 -53.96642541 46.16887701 -48 40 C-45.443874 37.39330317 -42.83377618 34.93866353 -40.0625 32.5625 C-37.77019113 30.57470448 -35.58517613 28.58517613 -33.4375 26.4375 C-27.90840705 20.90840705 -21.70768657 16.11367054 -15.65234375 11.1796875 C-13.43089595 9.35410889 -11.23750334 7.50532547 -9.0625 5.625 C-2.53125 0 -2.53125 0 0 0 Z " fill="#D2D2D4" transform="translate(194,458)"/>
<path d="M0 0 C5.1627435 2.19837891 8.24516681 4.94441479 11.875 9.0625 C12.37257813 9.60455078 12.87015625 10.14660156 13.3828125 10.70507812 C17 14.72472742 17 14.72472742 17 17 C51.98 17 86.96 17 123 17 C123 17.33 123 17.66 123 18 C92.97 18.33 62.94 18.66 32 19 C32 19.33 32 19.66 32 20 C31.19175781 20.10957031 30.38351562 20.21914063 29.55078125 20.33203125 C28.48214844 20.49058594 27.41351563 20.64914062 26.3125 20.8125 C25.25675781 20.96332031 24.20101563 21.11414063 23.11328125 21.26953125 C19.86941068 22.03064015 17.67610405 23.02891779 15 25 C15 25.66 15 26.32 15 27 C14.01 27.33 13.02 27.66 12 28 C7.56264762 23.43520408 4.75449845 20.48868669 4 14 C2.05990478 12.29467677 2.05990478 12.29467677 0 11 C-0.33 10.01 -0.66 9.02 -1 8 C-1.66 7.34 -2.32 6.68 -3 6 C-3 5.34 -3 4.68 -3 4 C-2.01 3.34 -1.02 2.68 0 2 C0 1.34 0 0.68 0 0 Z " fill="#373638" transform="translate(260,508)"/>
<path d="M0 0 C5.36341995 4.22226677 9.4242938 8.86416467 13.671875 14.1953125 C16.54845044 17.66071714 19.68232054 20.76745778 22.90234375 23.91015625 C25.35263905 26.35132568 27.58806472 28.92471187 29.8359375 31.55078125 C33.52609992 35.72719251 37.37150174 39.76139731 41.2019043 43.80908203 C41.79140869 44.43540527 42.38091309 45.06172852 42.98828125 45.70703125 C43.51977783 46.2688208 44.05127441 46.83061035 44.59887695 47.40942383 C46 49 46 49 48 52 C45.35261084 53.4606285 44.10551666 54 41 54 C39.4921875 52.6015625 39.4921875 52.6015625 37.875 50.625 C37.26140625 49.8928125 36.6478125 49.160625 36.015625 48.40625 C35.35046875 47.6121875 34.6853125 46.818125 34 46 C32.54875151 44.36866958 31.0901597 42.74384779 29.625 41.125 C26.62048536 37.79567296 23.62029941 34.46261934 20.625 31.125 C17.70340154 27.8765094 14.76347198 24.64616437 11.80517578 21.43115234 C10.40040201 19.90263954 9.0006768 18.36962995 7.6015625 16.8359375 C5.98736803 15.0763201 4.35956335 13.32896228 2.7109375 11.6015625 C2.06382812 10.90804688 1.41671875 10.21453125 0.75 9.5 C0.18796875 8.9121875 -0.3740625 8.324375 -0.953125 7.71875 C-2 6 -2 6 -1.734375 3.90625 C-1 2 -1 2 0 0 Z " fill="#F7EBEC" transform="translate(209,441)"/>
<path d="M0 0 C1.84326172 0.21557617 1.84326172 0.21557617 4 1 C5.34033203 2.9777832 5.34033203 2.9777832 6.5078125 5.55078125 C6.93707031 6.47697266 7.36632812 7.40316406 7.80859375 8.35742188 C8.24300781 9.33259766 8.67742187 10.30777344 9.125 11.3125 C9.56714844 12.27607422 10.00929688 13.23964844 10.46484375 14.23242188 C11.28945766 16.02988089 12.10798188 17.83015487 12.91845703 19.6340332 C13.61242224 21.15214083 14.35004949 22.65145185 15.14013672 24.12182617 C16 26 16 26 16 29 C14.68 28.67 13.36 28.34 12 28 C11.34 25.69 10.68 23.38 10 21 C1.585 21.495 1.585 21.495 -7 22 C-7.99 24.31 -8.98 26.62 -10 29 C-10.99 29 -11.98 29 -13 29 C-12.41519208 25.55924139 -11.54264073 22.67715603 -10.0390625 19.53125 C-9.64976562 18.71269531 -9.26046875 17.89414062 -8.859375 17.05078125 C-8.24835938 15.78814453 -8.24835938 15.78814453 -7.625 14.5 C-7.22539062 13.65824219 -6.82578125 12.81648437 -6.4140625 11.94921875 C-4.44881641 7.84418169 -2.4442609 3.84773974 0 0 Z " fill="#B12934" transform="translate(499,552)"/>
<path d="M0 0 C2.3190918 0.19042969 2.3190918 0.19042969 5 1 C6.57739258 3.14550781 6.57739258 3.14550781 7.89453125 5.953125 C8.37470703 6.96503906 8.85488281 7.97695313 9.34960938 9.01953125 C9.83236328 10.08558594 10.31511719 11.15164063 10.8125 12.25 C11.56563477 13.82587891 11.56563477 13.82587891 12.33398438 15.43359375 C16.32322337 23.99824564 16.32322337 23.99824564 16 29 C15.01 28.67 14.02 28.34 13 28 C12.01 26.02 11.02 24.04 10 22 C4.72 22 -0.56 22 -6 22 C-7.32 24.31 -8.64 26.62 -10 29 C-10.66 29 -11.32 29 -12 29 C-11.35812248 24.07893903 -9.27433547 20.0315229 -7.125 15.625 C-6.4181023 14.15941722 -5.71235924 12.69327691 -5.0078125 11.2265625 C-4.66911133 10.52176758 -4.33041016 9.81697266 -3.98144531 9.09082031 C-2.57403497 6.09254615 -1.28127302 3.05410362 0 0 Z " fill="#BB2E3B" transform="translate(640,552)"/>
<path d="M0 0 C6.6 0 13.2 0 20 0 C20 0.99 20 1.98 20 3 C14.39 3 8.78 3 3 3 C3 6.3 3 9.6 3 13 C7.95 13 12.9 13 18 13 C18 13.99 18 14.98 18 16 C13.05 16 8.1 16 3 16 C3 19.3 3 22.6 3 26 C8.94 26 14.88 26 21 26 C21 26.99 21 27.98 21 29 C14.07 29 7.14 29 0 29 C0 19.43 0 9.86 0 0 Z " fill="#C9101B" transform="translate(556,552)"/>
<path d="M0 0 C6.6 0 13.2 0 20 0 C20 0.99 20 1.98 20 3 C14.39 3 8.78 3 3 3 C3 6.3 3 9.6 3 13 C7.95 13 12.9 13 18 13 C18 13.99 18 14.98 18 16 C13.05 16 8.1 16 3 16 C3 19.3 3 22.6 3 26 C8.61 26 14.22 26 20 26 C20 26.99 20 27.98 20 29 C13.4 29 6.8 29 0 29 C0 19.43 0 9.86 0 0 Z " fill="#AD3233" transform="translate(685,552)"/>
<path d="M0 0 C6.6 0 13.2 0 20 0 C20 0.99 20 1.98 20 3 C14.39 3 8.78 3 3 3 C3 6.3 3 9.6 3 13 C7.95 13 12.9 13 18 13 C18 13.99 18 14.98 18 16 C13.05 16 8.1 16 3 16 C3 19.3 3 22.6 3 26 C8.61 26 14.22 26 20 26 C20 26.99 20 27.98 20 29 C13.4 29 6.8 29 0 29 C0 19.43 0 9.86 0 0 Z " fill="#A91C27" transform="translate(462,552)"/>
<path d="M0 0 C13.41106664 -0.36911193 13.41106664 -0.36911193 15.95703125 1.2265625 C17.32937665 3.56006367 17.21779325 4.89486535 16.875 7.5625 C16.78992188 8.34753906 16.70484375 9.13257813 16.6171875 9.94140625 C16 12 16 12 13 14 C8.65339644 14.27064779 4.35919984 14.08632079 0 14 C0 9.38 0 4.76 0 0 Z " fill="#FAFAFA" transform="translate(488,494)"/>
<path d="M0 0 C2.33984375 1.40625 2.33984375 1.40625 4 3 C4 3.66 4 4.32 4 5 C3.360625 4.835 2.72125 4.67 2.0625 4.5 C-1.93040561 3.84809704 -5.96835708 3.53267793 -10 4 C-10.66 4.66 -11.32 5.32 -12 6 C-11.67958603 8.60280568 -11.67958603 8.60280568 -11 11 C-9.66195312 11.36351562 -9.66195312 11.36351562 -8.296875 11.734375 C-7.12640625 12.06953125 -5.9559375 12.4046875 -4.75 12.75 C-3.58984375 13.07484375 -2.4296875 13.3996875 -1.234375 13.734375 C2.11532579 15.04512748 3.79699277 16.18625809 6 19 C6 22.34322712 5.26303925 23.6843529 3.125 26.25 C-1.0930194 29.72366303 -5.79278889 29.39213674 -11 29 C-14.0625 28 -14.0625 28 -16 27 C-16 25.68 -16 24.36 -16 23 C-15.195625 23.33 -14.39125 23.66 -13.5625 24 C-9.35367677 25.18142406 -5.35033642 25.59164575 -1 25 C1.28728734 23.16116119 1.28728734 23.16116119 1.125 20.375 C1.08375 19.59125 1.0425 18.8075 1 18 C0.19175781 17.82984375 -0.61648438 17.6596875 -1.44921875 17.484375 C-12.88770999 14.89036251 -12.88770999 14.89036251 -16 11 C-16.83747593 7.06386313 -16.3310976 5.52518929 -14.1875 2.125 C-9.65603742 -0.89597505 -5.31413577 -0.95036705 0 0 Z " fill="#AF2633" transform="translate(598,552)"/>
<path d="M0 0 C1.7049381 0.96947461 3.40926162 1.940058 5.109375 2.91796875 C6.71073998 3.83445243 8.3229941 4.73186908 9.9375 5.625 C10.618125 6.07875 11.29875 6.5325 12 7 C12 7.66 12 8.32 12 9 C-0.09111575 9.06939873 -12.18218441 9.12275965 -24.27345848 9.15543652 C-29.88745515 9.17111687 -35.50131593 9.19239833 -41.11523438 9.22631836 C-46.5292762 9.25882735 -51.94318702 9.27683514 -57.35731888 9.28463173 C-59.42667327 9.29019048 -61.49602019 9.30104481 -63.56531906 9.31719017 C-66.45565238 9.33885203 -69.3454389 9.34197166 -72.23583984 9.34057617 C-73.52948204 9.35675491 -73.52948204 9.35675491 -74.84925842 9.3732605 C-77.22885132 9.36076355 -77.22885132 9.36076355 -81 9 C-81.66 8.01 -82.32 7.02 -83 6 C-55.28 6.33 -27.56 6.66 1 7 C1.33 5.35 1.66 3.7 2 2 C1.34 2 0.68 2 0 2 C0 1.34 0 0.68 0 0 Z " fill="#C63F48" transform="translate(362,511)"/>
<path d="M0 0 C1.8975 -0.061875 3.795 -0.12375 5.75 -0.1875 C7.35101563 -0.23970703 7.35101563 -0.23970703 8.984375 -0.29296875 C12.35541238 0.03452841 13.68796703 0.55034602 16 3 C16.53125 4.9375 16.53125 4.9375 16.5 7 C16.5103125 7.680625 16.520625 8.36125 16.53125 9.0625 C16 11 16 11 14.359375 12.73828125 C11.32045844 14.36339723 9.17612843 14.29922158 5.75 14.1875 C2.90375 14.0946875 2.90375 14.0946875 0 14 C0 9.38 0 4.76 0 0 Z " fill="#FDECEE" transform="translate(435,555)"/>
<path d="M0 0 C4.62 0 9.24 0 14 0 C14.09765625 10.83984375 14.09765625 10.83984375 14 14 C13 15 13 15 10.05859375 15.09765625 C6.70572917 15.06510417 3.35286458 15.03255208 0 15 C0 10.05 0 5.1 0 0 Z " fill="#BB1E24" transform="translate(184,508)"/>
<path d="M0 0 C0.66 0.33 1.32 0.66 2 1 C-1.96 4.465 -1.96 4.465 -6 8 C-6.33 7.34 -6.66 6.68 -7 6 C-4.69 4.02 -2.38 2.04 0 0 Z M-9 8 C-8.01 8.495 -8.01 8.495 -7 9 C-10.81805965 14.13463194 -15.33782236 17.83150949 -20.37890625 21.75390625 C-22.969906 23.97421155 -24.88898511 26.33490094 -27 29 C-29.25 29.8125 -29.25 29.8125 -31 30 C-31.33 31.32 -31.66 32.64 -32 34 C-32.66 34 -33.32 34 -34 34 C-34.24492187 34.76441406 -34.48984375 35.52882813 -34.7421875 36.31640625 C-36.17856438 39.38097431 -37.26412621 40.21798527 -40.125 41.9375 C-46.70030365 46.06027882 -52.62845003 50.3664232 -58 56 C-62.97251875 61.07811278 -67.97339059 65.97814227 -73.46875 70.4921875 C-75.26227841 72.03000526 -75.26227841 72.03000526 -76 75 C-75.34 75.33 -74.68 75.66 -74 76 C-75.32 76 -76.64 76 -78 76 C-78.2265625 73.71875 -78.2265625 73.71875 -78 71 C-76.4609375 69.15625 -76.4609375 69.15625 -74.375 67.5 C-73.64410156 66.90445313 -72.91320312 66.30890625 -72.16015625 65.6953125 C-71.44730469 65.13585937 -70.73445313 64.57640625 -70 64 C-66.13139668 60.83721576 -62.49579398 57.57709151 -59 54 C-43.93457944 38.64485981 -43.93457944 38.64485981 -39 37 C-39 36.34 -39 35.68 -39 35 C-37.671875 33.66015625 -37.671875 33.66015625 -35.75 32.0625 C-32.09026404 28.95431999 -28.52659906 25.75763058 -25 22.5 C-20.89434633 18.71701638 -16.75038229 14.98714421 -12.5234375 11.33984375 C-11.30827165 10.27112096 -10.1442894 9.1442894 -9 8 Z " fill="#DEE0E0" transform="translate(360,547)"/>
<path d="M0 0 C1.10611998 1.10611998 2.2118519 2.2126291 3.31640625 3.3203125 C4.56917776 4.57017734 5.82795574 5.81402751 7.08984375 7.0546875 C11.95710852 11.86371149 16.57776195 16.7808834 21 22 C21.45262207 22.53302734 21.90524414 23.06605469 22.37158203 23.61523438 C25.58832204 27.40404768 28.79657951 31.19992073 32 35 C29.24055395 36.37972303 28.14121057 35.59545084 25.24609375 34.63671875 C24.30958984 34.32669922 23.37308594 34.01667969 22.40820312 33.69726562 C20.93770508 33.19743164 20.93770508 33.19743164 19.4375 32.6875 C18.45330078 32.36587891 17.46910156 32.04425781 16.45507812 31.71289062 C15.51986328 31.39900391 14.58464844 31.08511719 13.62109375 30.76171875 C12.7592749 30.47256592 11.89745605 30.18341309 11.00952148 29.88549805 C9 29 9 29 8 27 C9.65 27 11.3 27 13 27 C13 26.01 13 25.02 13 24 C13.66 24 14.32 24 15 24 C15 23.34 15 22.68 15 22 C14.34 21.67 13.68 21.34 13 21 C12.67 20.01 12.34 19.02 12 18 C11.67 18 11.34 18 11 18 C10.7525 16.7625 10.7525 16.7625 10.5 15.5 C8.67486795 11.24135855 6.18115846 8.9949673 2.77734375 5.9296875 C0.90683367 3.89884798 0.38919294 2.69441263 0 0 Z " fill="#195EA1" transform="translate(241,610)"/>
<path d="M0 0 C4.62 0 9.24 0 14 0 C14 4.62 14 9.24 14 14 C9.38 14 4.76 14 0 14 C0 9.38 0 4.76 0 0 Z " fill="#0755A0" transform="translate(279,575)"/>
<path d="M0 0 C4.62 0 9.24 0 14 0 C14 4.62 14 9.24 14 14 C9.38 14 4.76 14 0 14 C0 9.38 0 4.76 0 0 Z " fill="#1C5F9F" transform="translate(279,557)"/>
<path d="M0 0 C4.62 0 9.24 0 14 0 C14 4.62 14 9.24 14 14 C9.38 14 4.76 14 0 14 C0 9.38 0 4.76 0 0 Z " fill="#1C5C9B" transform="translate(261,557)"/>
<path d="M0 0 C4.62 0 9.24 0 14 0 C14 4.62 14 9.24 14 14 C9.38 14 4.76 14 0 14 C0 9.38 0 4.76 0 0 Z " fill="#B8161A" transform="translate(202,509)"/>
<path d="M0 0 C4.62 0 9.24 0 14 0 C14 4.62 14 9.24 14 14 C9.38 14 4.76 14 0 14 C0 9.38 0 4.76 0 0 Z " fill="#BA161E" transform="translate(184,490)"/>
<path d="M0 0 C30.69 0 61.38 0 93 0 C93 0.66 93 1.32 93 2 C47.46 2.495 47.46 2.495 1 3 C0.67 2.01 0.34 1.02 0 0 Z " fill="#376EA0" transform="translate(104,560)"/>
<path d="M0 0 C4.62 0 9.24 0 14 0 C14 4.29 14 8.58 14 13 C9.38 13 4.76 13 0 13 C0 8.71 0 4.42 0 0 Z " fill="#0253A1" transform="translate(261,576)"/>
<path d="M0 0 C7.92 0 15.84 0 24 0 C24 0.99 24 1.98 24 3 C20.7 3 17.4 3 14 3 C14 11.58 14 20.16 14 29 C12.68 29 11.36 29 10 29 C10 20.42 10 11.84 10 3 C6.7 3 3.4 3 0 3 C0 2.01 0 1.02 0 0 Z " fill="#BA333F" transform="translate(605,552)"/>
<path d="M0 0 C2.27057377 -0.05398987 4.54151288 -0.09278742 6.8125 -0.125 C8.07707031 -0.14820313 9.34164062 -0.17140625 10.64453125 -0.1953125 C14 0 14 0 17 2 C17.4375 4.9375 17.4375 4.9375 17 8 C14.60387063 10.50689934 13.25005217 10.97735035 9.765625 11.29296875 C8.60546875 11.25816406 7.4453125 11.22335937 6.25 11.1875 C5.07953125 11.16042969 3.9090625 11.13335937 2.703125 11.10546875 C1.81109375 11.07066406 0.9190625 11.03585937 0 11 C0 7.37 0 3.74 0 0 Z " fill="#FCFBFC" transform="translate(736,494)"/>
<path d="M0 0 C7.59 0 15.18 0 23 0 C23 0.99 23 1.98 23 3 C20.03 3 17.06 3 14 3 C14 11.58 14 20.16 14 29 C12.68 29 11.36 29 10 29 C10 20.42 10 11.84 10 3 C6.7 3 3.4 3 0 3 C0 2.01 0 1.02 0 0 Z " fill="#B93540" transform="translate(656,552)"/>
<path d="M0 0 C4.29 0 8.58 0 13 0 C13 4.29 13 8.58 13 13 C8.71 13 4.42 13 0 13 C0 8.71 0 4.42 0 0 Z " fill="#B8060E" transform="translate(203,491)"/>
<path d="M0 0 C0.99 1.0209375 0.99 1.0209375 2 2.0625 C5.49468234 5.56725347 9.25130779 8.77221788 13 12 C9.55549263 14.29633824 7.06187717 14.54016485 3 15 C2.67 16.32 2.34 17.64 2 19 C-2.25209792 14.87675353 -6.13635705 10.48717034 -10 6 C-9.34 5.34 -8.68 4.68 -8 4 C-7.34 5.32 -6.68 6.64 -6 8 C-5.34 8 -4.68 8 -4 8 C-4 7.34 -4 6.68 -4 6 C-3.34 6 -2.68 6 -2 6 C-2.33 5.01 -2.66 4.02 -3 3 C-2.01 2.67 -1.02 2.34 0 2 C0 1.34 0 0.68 0 0 Z " fill="#232225" transform="translate(274,620)"/>
<path d="M0 0 C0.90596924 0.02094727 1.81193848 0.04189453 2.74536133 0.06347656 C4.21972656 0.0828125 4.21972656 0.0828125 5.72387695 0.10253906 C6.74803711 0.13605469 7.77219727 0.16957031 8.82739258 0.20410156 C10.38103516 0.23117187 10.38103516 0.23117187 11.96606445 0.25878906 C14.52493541 0.30595719 17.081951 0.37176099 19.63989258 0.45410156 C20.29989258 2.76410156 20.95989258 5.07410156 21.63989258 7.45410156 C17.51502419 7.54087064 13.39038874 7.59441451 9.26489258 7.64160156 C8.08926758 7.66673828 6.91364258 7.691875 5.70239258 7.71777344 C4.5809082 7.72744141 3.45942383 7.73710937 2.30395508 7.74707031 C1.26706543 7.76278076 0.23017578 7.77849121 -0.83813477 7.79467773 C-1.67038574 7.6822876 -2.50263672 7.56989746 -3.36010742 7.45410156 C-4.02010742 6.46410156 -4.68010742 5.47410156 -5.36010742 4.45410156 C-3.04824808 0.58650475 -3.04824808 0.58650475 0 0 Z " fill="#171517" transform="translate(792.360107421875,485.5458984375)"/>
<path d="M0 0 C0.495 0.99 0.495 0.99 1 2 C0.34 2 -0.32 2 -1 2 C-1.66 3.65 -2.32 5.3 -3 7 C-3.66 7 -4.32 7 -5 7 C-5.2475 7.5775 -5.495 8.155 -5.75 8.75 C-7.16926295 11.3046733 -8.94069854 12.94069854 -11 15 C-11.26941406 15.60457031 -11.53882813 16.20914062 -11.81640625 16.83203125 C-17.02134986 26.36583886 -30.39182583 34.62875276 -39 41 C-39.66 40.67 -40.32 40.34 -41 40 C-40.41992188 39.35933594 -39.83984375 38.71867188 -39.2421875 38.05859375 C-38.46101563 37.19363281 -37.67984375 36.32867188 -36.875 35.4375 C-36.04742187 34.52355469 -35.21984375 33.60960937 -34.3671875 32.66796875 C-32.50555697 30.56979441 -30.74464966 28.44313305 -29 26.25 C-26.88059487 23.74472492 -24.79881526 22.14045561 -22 20.4375 C-15.25434048 16.22434064 -9.96920947 10.22081014 -4.48291016 4.53051758 C-3.0041341 3.00426682 -1.50646292 1.49888288 0 0 Z " fill="#DADADC" transform="translate(149,495)"/>
<path d="M0 0 C0.66 0 1.32 0 2 0 C3.0067004 2.26807204 4.00551766 4.53907754 5 6.8125 C5.28617188 7.45509766 5.57234375 8.09769531 5.8671875 8.75976562 C7.13711041 11.67756469 8 13.78265714 8 17 C3.05 17 -1.9 17 -7 17 C-6.10465713 12.52328567 -4.99789901 9.67678319 -2.9375 5.6875 C-2.38964844 4.61886719 -1.84179688 3.55023438 -1.27734375 2.44921875 C-0.64505859 1.23685547 -0.64505859 1.23685547 0 0 Z " fill="#E6E6E7" transform="translate(687,498)"/>
<path d="M0 0 C1.6065676 0.25620684 3.2102483 0.53055871 4.8125 0.8125 C6.15248047 1.03873047 6.15248047 1.03873047 7.51953125 1.26953125 C10.27658173 2.08145005 11.32073983 2.69101726 13 5 C13.73046875 7.26171875 13.73046875 7.26171875 14.1875 9.6875 C14.34605469 10.49574219 14.50460938 11.30398438 14.66796875 12.13671875 C14.77753906 12.75160156 14.88710937 13.36648438 15 14 C12 16 12 16 10.1875 15.875 C5.96166256 14.18466502 1.90093061 11.54558186 -1 8 C-1 7.34 -1 6.68 -1 6 C-0.34 6 0.32 6 1 6 C0.67 4.02 0.34 2.04 0 0 Z " fill="#16151A" transform="translate(213,462)"/>
<path d="M0 0 C0.99 0 1.98 0 3 0 C3 8.58 3 17.16 3 26 C8.61 26 14.22 26 20 26 C20 26.99 20 27.98 20 29 C13.4 29 6.8 29 0 29 C0 19.43 0 9.86 0 0 Z " fill="#BA3841" transform="translate(520,552)"/>
<path d="M0 0 C5.94 0 11.88 0 18 0 C17.67 15.18 17.34 30.36 17 46 C16.67 46 16.34 46 16 46 C15.67 31.48 15.34 16.96 15 2 C11.7 2 8.4 2 5 2 C4.10557535 4.68327394 3.85418313 6.34149739 3.79467773 9.10424805 C3.77473251 9.92487228 3.75478729 10.74549652 3.73423767 11.59098816 C3.71752518 12.47232925 3.70081268 13.35367035 3.68359375 14.26171875 C3.66281265 15.16751175 3.64203156 16.07330475 3.62062073 17.00654602 C3.55523442 19.90012016 3.49629096 22.79378507 3.4375 25.6875 C3.3943044 27.64909793 3.35068977 29.61068668 3.30664062 31.57226562 C3.19956418 36.38141739 3.09826586 41.19066046 3 46 C2.67 46 2.34 46 2 46 C1.97494385 44.71311279 1.9498877 43.42622559 1.92407227 42.1003418 C1.82998428 37.33119546 1.72976687 32.56219429 1.62768555 27.79321289 C1.58434197 25.72814324 1.54266648 23.66303788 1.50268555 21.59790039 C1.44496917 18.63156365 1.38127849 15.66540655 1.31640625 12.69921875 C1.29969376 11.7741301 1.28298126 10.84904144 1.26576233 9.8959198 C1.24581711 9.03525406 1.22587189 8.17458832 1.20532227 7.2878418 C1.18977798 6.53061325 1.1742337 5.7733847 1.15821838 4.99320984 C1.06367677 2.79075185 1.06367677 2.79075185 0 0 Z " fill="#59585B" transform="translate(576,483)"/>
<path d="M0 0 C6.1055471 -0.02464513 12.21106551 -0.04283371 18.31665039 -0.05493164 C20.39543156 -0.05997288 22.47420916 -0.06680574 24.55297852 -0.07543945 C27.53402586 -0.08751422 30.51502649 -0.09323024 33.49609375 -0.09765625 C34.89921059 -0.10539818 34.89921059 -0.10539818 36.33067322 -0.11329651 C37.19149002 -0.11337204 38.05230682 -0.11344757 38.93920898 -0.11352539 C40.08171364 -0.11685631 40.08171364 -0.11685631 41.24729919 -0.12025452 C43 0 43 0 44 1 C44.07244053 3.01964199 44.08377188 5.04167124 44.0625 7.0625 C44.05347656 8.16722656 44.04445313 9.27195312 44.03515625 10.41015625 C44.02355469 11.26480469 44.01195312 12.11945313 44 13 C43.01 12.67 42.02 12.34 41 12 C40.505 10.515 40.505 10.515 40 9 C39.34 8.34 38.68 7.68 38 7 C38.33 5.35 38.66 3.7 39 2 C26.13 2 13.26 2 0 2 C0 1.34 0 0.68 0 0 Z " fill="#424243" transform="translate(773,483)"/>
<path d="M0 0 C4.84711222 3.85565744 9.10288051 8.09744679 13.3125 12.625 C13.84004883 13.18727295 14.36759766 13.7495459 14.91113281 14.32885742 C19.9101494 19.76702038 19.9101494 19.76702038 21 23 C20.67 23.66 20.34 24.32 20 25 C17.13302508 23.71480435 15.02392288 22.42870746 13 20 C13 19.34 13 18.68 13 18 C12.401875 17.75121094 11.80375 17.50242187 11.1875 17.24609375 C8.67558372 15.81519858 7.62461725 14.43320506 6 12.0625 C3.949206 9.08104676 1.98944896 7.05524616 -1 5 C-0.67 3.35 -0.34 1.7 0 0 Z " fill="#212223" transform="translate(226,568)"/>
<path d="M0 0 C0.33 0.99 0.66 1.98 1 3 C1.66 3.165 2.32 3.33 3 3.5 C3.66 3.665 4.32 3.83 5 4 C5.33 4.99 5.66 5.98 6 7 C7.56555809 8.5529292 7.56555809 8.5529292 9.4375 10 C11.88774632 11.96428932 13.21380578 13.32070868 15 16 C15.66 16.33 16.32 16.66 17 17 C17 17.99 17 18.98 17 20 C17.66 20 18.32 20 19 20 C19 20.66 19 21.32 19 22 C20.32 22 21.64 22 23 22 C23 23.98 23 25.96 23 28 C20 28 20 28 18.66796875 26.77734375 C18.17941406 26.17019531 17.69085938 25.56304688 17.1875 24.9375 C12.91721482 19.80946855 8.32960195 15.00667741 3.71166992 10.19311523 C3.11845947 9.56606689 2.52524902 8.93901855 1.9140625 8.29296875 C1.3773291 7.7311792 0.8405957 7.16938965 0.28759766 6.59057617 C-1 5 -1 5 -2 2 C-1.34 2 -0.68 2 0 2 C0 1.34 0 0.68 0 0 Z " fill="#2B282A" transform="translate(223,576)"/>
<path d="M0 0 C3.70488428 0.92622107 5.16604069 1.67210485 8 4 C5 4 5 4 2 3 C2.00523682 3.85231201 2.01047363 4.70462402 2.01586914 5.58276367 C2.03296332 8.76033273 2.04547562 11.93787825 2.05493164 15.11547852 C2.05994454 16.48788222 2.06675658 17.86028062 2.07543945 19.23266602 C2.08763857 21.21107651 2.09272248 23.1895268 2.09765625 25.16796875 C2.10289307 26.35672607 2.10812988 27.5454834 2.11352539 28.77026367 C2.01239479 31.64737487 1.66550193 34.20673413 1 37 C-4.01083671 36.49042339 -7.21230687 35.91507725 -12 34 C-12.33 27.07 -12.66 20.14 -13 13 C-12.01 13.495 -12.01 13.495 -11 14 C-11 20.27 -11 26.54 -11 33 C-9.35 33.33 -7.7 33.66 -6 34 C-4.02 34.66 -2.04 35.32 0 36 C0 24.12 0 12.24 0 0 Z " fill="#CBE4F5" transform="translate(203,604)"/>
<path d="M0 0 C1.32 0.66 2.64 1.32 4 2 C4 5.57575896 2.91159393 7.05295935 1 10 C1.99 11.485 1.99 11.485 3 13 C3 13.99 3 14.98 3 16 C-1.62409693 15.164372 -3.77676317 12.3516499 -6.75 8.9375 C-7.25660156 8.36966797 -7.76320312 7.80183594 -8.28515625 7.21679688 C-9.53113136 5.8180135 -10.76660973 4.40989267 -12 3 C-10.68 2.34 -9.36 1.68 -8 1 C-7.401875 1.66 -6.80375 2.32 -6.1875 3 C-4.12498166 5.3373846 -4.12498166 5.3373846 -1 5 C-0.67 3.35 -0.34 1.7 0 0 Z " fill="#1A191B" transform="translate(220,562)"/>
<path d="M0 0 C0.66 0 1.32 0 2 0 C2.36666667 5.5 2.36666667 5.5 0.625 7.875 C-1 9 -1 9 -3 9 C-2.38125 10.0725 -1.7625 11.145 -1.125 12.25 C0.3323679 14.79780984 1.72924491 17.35259355 3 20 C1.68 20 0.36 20 -1 20 C-2.38671875 18.28515625 -2.38671875 18.28515625 -3.6875 16.0625 C-5.47488884 13.45723143 -6.34179292 12.20791157 -9.38671875 11.24609375 C-11.61661525 11.02555454 -13.76170834 10.9204163 -16 11 C-16 10.01 -16 9.02 -16 8 C-14.87851562 7.96132813 -14.87851562 7.96132813 -13.734375 7.921875 C-7.67866444 7.70084877 -7.67866444 7.70084877 -2.375 5.125 C-0.84707986 2.95770294 -0.84707986 2.95770294 0 0 Z " fill="#AC1B25" transform="translate(452,561)"/>
<path d="M0 0 C3 1 3 1 4.16796875 2.9609375 C4.50441406 3.75757813 4.84085938 4.55421875 5.1875 5.375 C5.53167969 6.16648437 5.87585938 6.95796875 6.23046875 7.7734375 C7 10 7 10 7 13 C3.04 13 -0.92 13 -5 13 C-2.05357143 3.89285714 -2.05357143 3.89285714 0 0 Z " fill="#FCE9EC" transform="translate(641,557)"/>
<path d="M0 0 C0.66 0 1.32 0 2 0 C2.84324672 1.578076 3.67423918 3.1627042 4.5 4.75 C4.9640625 5.63171875 5.428125 6.5134375 5.90625 7.421875 C7 10 7 10 7 14 C3.37 14 -0.26 14 -4 14 C-3.36843005 8.94744036 -1.86540627 4.70406799 0 0 Z " fill="#FCE9EA" transform="translate(499,556)"/>
<path d="M0 0 C5.445 1.485 5.445 1.485 11 3 C11 9.27 11 15.54 11 22 C10.34 21.67 9.68 21.34 9 21 C8.67 15.39 8.34 9.78 8 4 C5.69 3.67 3.38 3.34 1 3 C1 14.22 1 25.44 1 37 C0.67 37 0.34 37 0 37 C0 24.79 0 12.58 0 0 Z " fill="#95111C" transform="translate(274,439)"/>
<path d="M0 0 C0.99 1.485 0.99 1.485 2 3 C2.66 2.67 3.32 2.34 4 2 C5.33257403 19.85649203 5.33257403 19.85649203 4 28 C2.68 28 1.36 28 0 28 C0 18.76 0 9.52 0 0 Z " fill="#CB424B" transform="translate(431,553)"/>
<path d="M0 0 C4.62 0 9.24 0 14 0 C14 4.29 14 8.58 14 13 C9.38 13 4.76 13 0 13 C0 8.71 0 4.42 0 0 Z M2 1 C2 4.3 2 7.6 2 11 C5.3 11 8.6 11 12 11 C12 7.7 12 4.4 12 1 C8.7 1 5.4 1 2 1 Z " fill="#285F91" transform="translate(261,576)"/>
<path d="M0 0 C2.0625 0.4375 2.0625 0.4375 4 1 C3.01 1 2.02 1 1 1 C1 12.88 1 24.76 1 37 C-0.32 36.67 -1.64 36.34 -3 36 C-3 35.34 -3 34.68 -3 34 C-2.34 34 -1.68 34 -1 34 C-1.00523682 33.00556885 -1.01047363 32.0111377 -1.01586914 30.98657227 C-1.03392041 27.30966079 -1.04543246 23.63275325 -1.05493164 19.95581055 C-1.05997157 18.36205386 -1.0668035 16.76830181 -1.07543945 15.17456055 C-1.08751999 12.88849747 -1.09323155 10.60249533 -1.09765625 8.31640625 C-1.10281754 7.59973282 -1.10797882 6.88305939 -1.11329651 6.14466858 C-1.11349263 4.42936328 -1.06192007 2.71418734 -1 1 C-0.67 0.67 -0.34 0.34 0 0 Z " fill="#14518B" transform="translate(202,603)"/>
<path d="M0 0 C7.59 0 15.18 0 23 0 C23 0.99 23 1.98 23 3 C20.03 3 17.06 3 14 3 C14 11.58 14 20.16 14 29 C13.67 29 13.34 29 13 29 C13 19.76 13 10.52 13 1 C12.01 1.66 11.02 2.32 10 3 C7.51953125 3.1953125 7.51953125 3.1953125 4.8125 3.125 C3.91144531 3.10695313 3.01039063 3.08890625 2.08203125 3.0703125 C1.39496094 3.04710937 0.70789063 3.02390625 0 3 C0 2.01 0 1.02 0 0 Z " fill="#BE4955" transform="translate(656,552)"/>
<path d="M0 0 C0.33 0 0.66 0 1 0 C1 6.27 1 12.54 1 19 C1.66 18.67 2.32 18.34 3 18 C4.37548156 17.91691362 5.75485796 17.89263984 7.1328125 17.90234375 C7.93847656 17.90556641 8.74414062 17.90878906 9.57421875 17.91210938 C10.41597656 17.92048828 11.25773438 17.92886719 12.125 17.9375 C12.97449219 17.94201172 13.82398438 17.94652344 14.69921875 17.95117188 C16.79950909 17.96297126 18.8997633 17.98090694 21 18 C21 18.99 21 19.98 21 21 C14.07 21 7.14 21 0 21 C0 14.07 0 7.14 0 0 Z " fill="#A33033" transform="translate(556,560)"/>
<path d="M0 0 C4.58716587 4.44381694 8.78762713 9.20228499 13 14 C11 15 11 15 8.84521484 14.47094727 C7.54124756 14.02319946 7.54124756 14.02319946 6.2109375 13.56640625 C5.26992188 13.24736328 4.32890625 12.92832031 3.359375 12.59960938 C2.37453125 12.25736328 1.3896875 11.91511719 0.375 11.5625 C-0.61757813 11.22412109 -1.61015625 10.88574219 -2.6328125 10.53710938 C-5.09090448 9.69804913 -7.54640157 8.85209309 -10 8 C-6.52411943 7.01473646 -4.29638596 7.14422946 -0.75 7.9375 C0.14203125 8.13214844 1.0340625 8.32679688 1.953125 8.52734375 C2.62859375 8.68332031 3.3040625 8.83929687 4 9 C3.51917969 8.57074219 3.03835938 8.14148438 2.54296875 7.69921875 C0.39027388 5.32852947 0.34632247 3.11690222 0 0 Z " fill="#3168A0" transform="translate(260,631)"/>
<path d="M0 0 C9.9 0 19.8 0 30 0 C30.33 0.66 30.66 1.32 31 2 C22.75 2 14.5 2 6 2 C5.67 3.65 5.34 5.3 5 7 C4.01 7.495 4.01 7.495 3 8 C1.92474806 5.34771188 0.90543849 2.71631546 0 0 Z " fill="#454447" transform="translate(720,483)"/>
<path d="M0 0 C0.66 0.66 1.32 1.32 2 2 C1.82895665 5.24982356 1.21958625 6.7364965 -0.875 9.25 C-5.0930194 12.72366303 -9.79278889 12.39213674 -15 12 C-18.0625 11 -18.0625 11 -20 10 C-20 8.68 -20 7.36 -20 6 C-18.7934375 6.495 -18.7934375 6.495 -17.5625 7 C-13.35367677 8.18142406 -9.35033642 8.59164575 -5 8 C-4.34 7.34 -3.68 6.68 -3 6 C-2.01 6 -1.02 6 0 6 C0 4.02 0 2.04 0 0 Z " fill="#B33237" transform="translate(602,569)"/>
<path d="M0 0 C1.25159912 0.00523682 2.50319824 0.01047363 3.79272461 0.01586914 C4.78942421 0.01799156 4.78942421 0.01799156 5.80625916 0.02015686 C7.93590735 0.02577021 10.06545175 0.03832485 12.19506836 0.05102539 C13.63582205 0.05603868 15.07657739 0.06060188 16.51733398 0.06469727 C20.05577938 0.07574394 23.59416375 0.09301747 27.13256836 0.11352539 C26.80256836 1.10352539 26.47256836 2.09352539 26.13256836 3.11352539 C21.69512297 3.17146131 17.25777447 3.20710006 12.82006836 3.23852539 C11.55743164 3.2552832 10.29479492 3.27204102 8.99389648 3.28930664 C7.18115234 3.29897461 7.18115234 3.29897461 5.33178711 3.30883789 C4.21634521 3.31931152 3.10090332 3.32978516 1.95166016 3.34057617 C-0.86743164 3.11352539 -0.86743164 3.11352539 -3.86743164 1.11352539 C-2.86743164 0.11352539 -2.86743164 0.11352539 0 0 Z " fill="#1D1B1E" transform="translate(303.867431640625,525.886474609375)"/>
<path d="M0 0 C4.62 0 9.24 0 14 0 C14 0.33 14 0.66 14 1 C9.71 1 5.42 1 1 1 C1 5.29 1 9.58 1 14 C5.29 14 9.58 14 14 14 C14 15.65 14 17.3 14 19 C9.71 19 5.42 19 1 19 C3.61941217 17.25372522 5.03824877 16.61277612 8 16 C5.36 15.67 2.72 15.34 0 15 C0 10.05 0 5.1 0 0 Z " fill="#E5ADB2" transform="translate(202,490)"/>
<path d="M0 0 C4.13937592 3.30015998 7.58662205 6.17324411 10 11 C7 13 7 13 4 13 C1.50635007 10.65748036 -0.42380372 8.03459854 -2 5 C-1.375 2 -1.375 2 0 0 Z " fill="#F8E6E7" transform="translate(209,441)"/>
<path d="M0 0 C4.62 0 9.24 0 14 0 C14 4.62 14 9.24 14 14 C9.38 14 4.76 14 0 14 C0 9.38 0 4.76 0 0 Z M1 1 C1 4.96 1 8.92 1 13 C6.445 12.505 6.445 12.505 12 12 C12.33 8.37 12.66 4.74 13 1 C9.04 1 5.08 1 1 1 Z " fill="#4D77A3" transform="translate(279,575)"/>
<path d="M0 0 C0.99 0.33 1.98 0.66 3 1 C3 1.66 3 2.32 3 3 C6.96 3 10.92 3 15 3 C15.33 3.66 15.66 4.32 16 5 C11.05 5.33 6.1 5.66 1 6 C0.01 8.31 -0.98 10.62 -2 13 C-2.99 13 -3.98 13 -5 13 C-4.39254603 8.14036821 -2.27241033 4.2594482 0 0 Z " fill="#921D24" transform="translate(491,568)"/>
<path d="M0 0 C-3.14167627 7.17641788 -10.67984561 13.49048443 -17 18 C-17.66 18 -18.32 18 -19 18 C-18.505 16.515 -18.505 16.515 -18 15 C-17.34 15 -16.68 15 -16 15 C-15.90074219 14.4121875 -15.80148438 13.824375 -15.69921875 13.21875 C-14.05004385 7.98561401 -5.7240585 0 0 0 Z " fill="#CACBCC" transform="translate(194,458)"/>
<path d="M0 0 C5.17286874 0.97855777 10.14606605 2.43694471 15.1875 3.9375 C16.55938477 4.33485352 16.55938477 4.33485352 17.95898438 4.74023438 C18.83232422 4.99998047 19.70566406 5.25972656 20.60546875 5.52734375 C21.79885864 5.87913696 21.79885864 5.87913696 23.01635742 6.23803711 C25 7 25 7 27 9 C22.545 9.495 22.545 9.495 18 10 C18 9.01 18 8.02 18 7 C16.54364629 6.77825067 15.08477044 6.57301302 13.625 6.375 C12.81289062 6.25898438 12.00078125 6.14296875 11.1640625 6.0234375 C10.44992188 6.01570313 9.73578125 6.00796875 9 6 C8.34 6.66 7.68 7.32 7 8 C5.83035398 6.8572081 4.66435444 5.71068285 3.5 4.5625 C2.8503125 3.92441406 2.200625 3.28632813 1.53125 2.62890625 C0 1 0 1 0 0 Z " fill="#B12027" transform="translate(203,434)"/>
<path d="M0 0 C0.33 0 0.66 0 1 0 C1 3.3 1 6.6 1 10 C6.61 10 12.22 10 18 10 C18 10.99 18 11.98 18 13 C11.4 13 4.8 13 -2 13 C-1.34 12.67 -0.68 12.34 0 12 C0 8.04 0 4.08 0 0 Z " fill="#9E323C" transform="translate(464,568)"/>
<path d="M0 0 C0.99 0 1.98 0 3 0 C3 0.66 3 1.32 3 2 C7.95 2 12.9 2 18 2 C18 2.66 18 3.32 18 4 C16.89140625 3.99097656 15.7828125 3.98195313 14.640625 3.97265625 C6.85068078 3.71265877 6.85068078 3.71265877 0.046875 6.625 C-1.18111165 8.73500973 -1.18111165 8.73500973 -2 12 C-2.66 12 -3.32 12 -4 12 C-3.33501617 7.61110675 -1.81242323 4.0188515 0 0 Z " fill="#941F26" transform="translate(632,569)"/>
<path d="M0 0 C2.99693138 0.99897713 4.02709413 1.65130253 6 4 C6 4.66 6 5.32 6 6 C6.66 6 7.32 6 8 6 C8.33 7.98 8.66 9.96 9 12 C6.36 12 3.72 12 1 12 C0.83126522 10.56274129 0.66509263 9.12518162 0.5 7.6875 C0.4071875 6.88699219 0.314375 6.08648437 0.21875 5.26171875 C0 3 0 3 0 0 Z " fill="#181619" transform="translate(238,488)"/>
<path d="M0 0 C1.65 0 3.3 0 5 0 C5.33 0.99 5.66 1.98 6 3 C7.98045559 3.66179847 7.98045559 3.66179847 10 4 C12.03571286 6.03571286 11.36876544 10.12567806 11.5 12.9375 C11.54291236 18.12702618 11.54291236 18.12702618 13 23 C11.68 23 10.36 23 9 23 C8.67 17.06 8.34 11.12 8 5 C5.36 3.68 2.72 2.36 0 1 C0 0.67 0 0.34 0 0 Z " fill="#15548C" transform="translate(206,604)"/>
<path d="M0 0 C6.6 0 13.2 0 20 0 C20 0.99 20 1.98 20 3 C17.04160645 3.02689449 14.08345573 3.04678741 11.125 3.0625 C9.86236328 3.07506836 9.86236328 3.07506836 8.57421875 3.08789062 C7.76855469 3.09111328 6.96289062 3.09433594 6.1328125 3.09765625 C5.01737061 3.10551147 5.01737061 3.10551147 3.87939453 3.11352539 C2 3 2 3 0 2 C0 1.34 0 0.68 0 0 Z " fill="#BD3D58" transform="translate(462,552)"/>
<path d="M0 0 C4.71377942 3.42820321 8.27365378 7.56912819 12 12 C12.51433594 12.61101562 13.02867187 13.22203125 13.55859375 13.8515625 C14.7113735 15.22967314 15.85661797 16.61408239 17 18 C15.68 18 14.36 18 13 18 C13 17.01 13 16.02 13 15 C12.443125 14.938125 11.88625 14.87625 11.3125 14.8125 C6.32892691 13.06151486 3.32096098 8.42176179 0.875 3.9375 C0 2 0 2 0 0 Z " fill="#2C2D2D" transform="translate(206,446)"/>
<path d="M0 0 C4.08055151 0.50547372 5.66272295 2.50088882 8.25 5.5625 C8.95640625 6.38878906 9.6628125 7.21507812 10.390625 8.06640625 C10.92171875 8.70449219 11.4528125 9.34257813 12 10 C11.67 10.66 11.34 11.32 11 12 C9.68 11.67 8.36 11.34 7 11 C7 10.34 7 9.68 7 9 C6.01 8.67 5.02 8.34 4 8 C2.29413425 6.37347684 0.6222454 4.70993434 -1 3 C-0.67 2.01 -0.34 1.02 0 0 Z " fill="#1D1D1D" transform="translate(204,546)"/>
<path d="M0 0 C1.98 0 3.96 0 6 0 C4.55218207 3.44428265 2.72305391 5.36130962 -0.125 7.75 C-1.21167969 8.67039062 -1.21167969 8.67039062 -2.3203125 9.609375 C-2.87460937 10.06828125 -3.42890625 10.5271875 -4 11 C-5.13583456 7.28272326 -4.66670026 5.52948291 -3 2 C-2.01 2 -1.02 2 0 2 C0 1.34 0 0.68 0 0 Z " fill="#282627" transform="translate(390,543)"/>
<path d="M0 0 C1.75211782 0.25677589 3.50167936 0.53102953 5.25 0.8125 C6.22453125 0.96332031 7.1990625 1.11414063 8.203125 1.26953125 C11.17441973 2.04555376 12.8144098 2.85564735 15 5 C15.25 8.1875 15.25 8.1875 15 11 C14.34 11 13.68 11 13 11 C12.67 9.35 12.34 7.7 12 6 C6.06 4.515 6.06 4.515 0 3 C0 2.01 0 1.02 0 0 Z " fill="#B7212B" transform="translate(587,564)"/>
<path d="M0 0 C0 3 0 3 -2.01171875 5.12109375 C-2.89472656 5.88550781 -3.77773437 6.64992188 -4.6875 7.4375 C-5.55761719 8.19933594 -6.42773438 8.96117187 -7.32421875 9.74609375 C-9.85058398 11.87414155 -12.4093931 13.95085328 -15 16 C-15.66 15.67 -16.32 15.34 -17 15 C-14.68162912 9.59046794 -11.00035641 6.85734652 -6 4 C-3.99419671 2.67541292 -1.99284138 1.3440093 0 0 Z " fill="#CDCDD0" transform="translate(135,512)"/>
<path d="M0 0 C7.34693878 -0.48979592 7.34693878 -0.48979592 10.5 1.875 C12 4 12 4 12 6 C12.66 6 13.32 6 14 6 C14 6.99 14 7.98 14 9 C13.01 9.33 12.02 9.66 11 10 C9.02 7.69 7.04 5.38 5 3 C3.68 3.33 2.36 3.66 1 4 C0.01 4 -0.98 4 -2 4 C-2 3.34 -2 2.68 -2 2 C-1.34 2 -0.68 2 0 2 C0 1.34 0 0.68 0 0 Z " fill="#2F2E2F" transform="translate(188,446)"/>
<path d="M0 0 C6.6 0 13.2 0 20 0 C20 0.99 20 1.98 20 3 C14.72 3 9.44 3 4 3 C4 2.34 4 1.68 4 1 C2.68 0.67 1.36 0.34 0 0 Z " fill="#B6394C" transform="translate(556,552)"/>
<path d="M0 0 C2.58340455 1.25133658 3.9276193 2.82336569 5.75 5.03125 C6.36359375 5.76472656 6.9771875 6.49820312 7.609375 7.25390625 C8.06828125 7.81980469 8.5271875 8.38570313 9 8.96875 C8.01 10.45375 8.01 10.45375 7 11.96875 C6.34 10.64875 5.68 9.32875 5 7.96875 C4.01 7.96875 3.02 7.96875 2 7.96875 C2 6.64875 2 5.32875 2 3.96875 C-0.33165034 3.63376699 -0.33165034 3.63376699 -3 3.96875 C-5.31377147 5.86459109 -5.31377147 5.86459109 -7 7.96875 C-7.66 7.63875 -8.32 7.30875 -9 6.96875 C-7.93283928 5.76669536 -6.84561663 4.58242667 -5.75 3.40625 C-5.14671875 2.74496094 -4.5434375 2.08367187 -3.921875 1.40234375 C-2 -0.03125 -2 -0.03125 0 0 Z " fill="#2E2D2F" transform="translate(192,430.03125)"/>
<path d="M0 0 C0.33 0 0.66 0 1 0 C1.07347656 0.90492188 1.07347656 0.90492188 1.1484375 1.828125 C1.22320312 2.62734375 1.29796875 3.4265625 1.375 4.25 C1.44460938 5.03890625 1.51421875 5.8278125 1.5859375 6.640625 C1.95029348 9.37704633 1.95029348 9.37704633 4 13 C-1.94 13 -7.88 13 -14 13 C-14 12.34 -14 11.68 -14 11 C-9.38 11 -4.76 11 0 11 C0 7.37 0 3.74 0 0 Z " fill="#3F3D3F" transform="translate(486,519)"/>
<path d="M0 0 C0.66 0.66 1.32 1.32 2 2 C0.68 5.3 -0.64 8.6 -2 12 C1.63 12 5.26 12 9 12 C9.33 11.34 9.66 10.68 10 10 C10 10.99 10 11.98 10 13 C5.71 13 1.42 13 -3 13 C-5 8 -5 8 -3.75 4.8125 C-2 2 -2 2 0 0 Z " fill="#C64E52" transform="translate(497,558)"/>
<path d="M0 0 C0 3.96 0 7.92 0 12 C-0.99 11.67 -1.98 11.34 -3 11 C-3.33 10.01 -3.66 9.02 -4 8 C-4.66 7.34 -5.32 6.68 -6 6 C-5.625 3.375 -5.625 3.375 -5 1 C-1.125 0 -1.125 0 0 0 Z " fill="#313033" transform="translate(817,484)"/>
<path d="M0 0 C2.64 0 5.28 0 8 0 C8 6.27 8 12.54 8 19 C7.34 18.67 6.68 18.34 6 18 C5.67 12.39 5.34 6.78 5 1 C3.35 1 1.7 1 0 1 C0 0.67 0 0.34 0 0 Z " fill="#9A0A15" transform="translate(277,442)"/>
<path d="M0 0 C0.33 0 0.66 0 1 0 C1 1.65 1 3.3 1 5 C1.66 5 2.32 5 3 5 C3 3.35 3 1.7 3 0 C3.33 0 3.66 0 4 0 C4 4.29 4 8.58 4 13 C2.35 13.33 0.7 13.66 -1 14 C-0.67 9.38 -0.34 4.76 0 0 Z " fill="#FBF2F2" transform="translate(198,509)"/>
<path d="M0 0 C1.9375 0.1875 1.9375 0.1875 4 1 C6.02755186 3.93995019 6 5.27704003 6 9 C5.01 8.67 4.02 8.34 3 8 C2.3125 5.9375 2.3125 5.9375 2 4 C1.34 4 0.68 4 0 4 C-0.33 4.99 -0.66 5.98 -1 7 C-1.66 7 -2.32 7 -3 7 C-1.125 1.125 -1.125 1.125 0 0 Z " fill="#A43041" transform="translate(499,552)"/>
<path d="M0 0 C0.66 0 1.32 0 2 0 C2 0.99 2 1.98 2 3 C2.66 3 3.32 3 4 3 C4 3.66 4 4.32 4 5 C5.32 5 6.64 5 8 5 C8 6.98 8 8.96 8 11 C5 11 5 11 3.359375 9.609375 C2.82828125 8.99578125 2.2971875 8.3821875 1.75 7.75 C1.20859375 7.14671875 0.6671875 6.5434375 0.109375 5.921875 C-1 4 -1 4 -0.671875 1.765625 C-0.45015625 1.18296875 -0.2284375 0.6003125 0 0 Z " fill="#1E1F21" transform="translate(238,593)"/>
<path d="M0 0 C0.66 0.66 1.32 1.32 2 2 C2.66 1.67 3.32 1.34 4 1 C4 4.96 4 8.92 4 13 C2.68 13 1.36 13 0 13 C0 8.71 0 4.42 0 0 Z " fill="#ECFAFE" transform="translate(275,576)"/>
<path d="M0 0 C4.95 0 9.9 0 15 0 C15 0.99 15 1.98 15 3 C12.87561661 3.08078641 10.7503677 3.13909141 8.625 3.1875 C7.44164062 3.22230469 6.25828125 3.25710938 5.0390625 3.29296875 C3.53472656 3.14794922 3.53472656 3.14794922 2 3 C1.34 2.01 0.68 1.02 0 0 Z " fill="#A7252D" transform="translate(688,565)"/>
<path d="M0 0 C4.62 0 9.24 0 14 0 C14 0.99 14 1.98 14 3 C9.38 3 4.76 3 0 3 C0 2.01 0 1.02 0 0 Z " fill="#9C1E2A" transform="translate(560,565)"/>
<path d="M0 0 C0.33 0 0.66 0 1 0 C1.02505615 0.95890137 1.0501123 1.91780273 1.07592773 2.90576172 C1.1699862 6.45798477 1.27021058 10.01001156 1.37231445 13.56201172 C1.41566926 15.10037653 1.45734395 16.63878963 1.49731445 18.17724609 C1.55500398 20.3865414 1.61870179 22.59559348 1.68359375 24.8046875 C1.70030624 25.49432587 1.71701874 26.18396423 1.73423767 26.89450073 C1.80806995 30.57114264 1.80806995 30.57114264 3 34 C1.02 33.67 -0.96 33.34 -3 33 C-2.67 32.34 -2.34 31.68 -2 31 C-1.34 31 -0.68 31 0 31 C0 20.77 0 10.54 0 0 Z " fill="#353537" transform="translate(908,497)"/>
<path d="M0 0 C4.62 0 9.24 0 14 0 C13.67 0.99 13.34 1.98 13 3 C10.69 2.67 8.38 2.34 6 2 C5.67 2.99 5.34 3.98 5 5 C4.01 4.67 3.02 4.34 2 4 C1.67 4.66 1.34 5.32 1 6 C0.67 4.02 0.34 2.04 0 0 Z " fill="#303032" transform="translate(680,483)"/>
<path d="M0 0 C1.125 1.625 1.125 1.625 2 4 C1.125 7.25 1.125 7.25 0 10 C3.63 10.33 7.26 10.66 11 11 C11 11.33 11 11.66 11 12 C6.71 12 2.42 12 -2 12 C-2 11.34 -2 10.68 -2 10 C-2.66 10 -3.32 10 -4 10 C-2.8905928 6.51329166 -1.73662334 3.22515763 0 0 Z " fill="#C05054" transform="translate(637,559)"/>
<path d="M0 0 C0.33 0 0.66 0 1 0 C1.33 7.59 1.66 15.18 2 23 C0.68 23 -0.64 23 -2 23 C-2.33 22.01 -2.66 21.02 -3 20 C-2.34 20 -1.68 20 -1 20 C-1.01160156 19.2265625 -1.02320313 18.453125 -1.03515625 17.65625 C-1.08709845 11.66063636 -0.91184156 5.92697017 0 0 Z " fill="#222224" transform="translate(868,507)"/>
<path d="M0 0 C0.99 0.99 1.98 1.98 3 3 C0.36 5.64 -2.28 8.28 -5 11 C-5.99 10.01 -6.98 9.02 -8 8 C-5.33333333 5.33333333 -2.66666667 2.66666667 0 0 Z " fill="#28282A" transform="translate(148,482)"/>
<path d="M0 0 C0.99 0.33 1.98 0.66 3 1 C3 4.3 3 7.6 3 11 C2.67 11 2.34 11 2 11 C1.67 13.97 1.34 16.94 1 20 C0.67 20 0.34 20 0 20 C0 13.4 0 6.8 0 0 Z " fill="#A0191C" transform="translate(462,554)"/>
<path d="M0 0 C5.28 0 10.56 0 16 0 C16 0.99 16 1.98 16 3 C12.37 3 8.74 3 5 3 C5 2.34 5 1.68 5 1 C3.35 1 1.7 1 0 1 C0 0.67 0 0.34 0 0 Z " fill="#B64654" transform="translate(689,552)"/>
<path d="M0 0 C1.19109375 0.00773438 1.19109375 0.00773438 2.40625 0.015625 C3.2003125 0.01046875 3.994375 0.0053125 4.8125 0 C6.90625 0.265625 6.90625 0.265625 8.90625 2.265625 C5.60625 2.595625 2.30625 2.925625 -1.09375 3.265625 C-2.49145584 7.01253947 -2.49145584 7.01253947 -1.09375 9.265625 C-2.41375 8.605625 -3.73375 7.945625 -5.09375 7.265625 C-4.02721693 0.51091558 -4.02721693 0.51091558 0 0 Z " fill="#FCD1D4" transform="translate(590.09375,554.734375)"/>
<path d="M0 0 C0 4.70738527 -2.81825891 7.68210332 -6 11 C-9.375 12.5 -9.375 12.5 -12 13 C-8.19524578 8.43969176 -4.25030379 4.14910608 0 0 Z " fill="#2F2D2E" transform="translate(373,550)"/>
<path d="M0 0 C0.95648437 -0.02578125 1.91296875 -0.0515625 2.8984375 -0.078125 C6.0292708 0.2986515 7.38554038 1.06360815 9.625 3.25 C9.625 3.91 9.625 4.57 9.625 5.25 C8.20818366 4.93817931 6.79155349 4.62551263 5.375 4.3125 C4.58609375 4.13847656 3.7971875 3.96445312 2.984375 3.78515625 C0.85603129 3.30240279 -1.25998763 2.78771501 -3.375 2.25 C-4.1175 2.064375 -4.86 1.87875 -5.625 1.6875 C-6.2025 1.543125 -6.78 1.39875 -7.375 1.25 C-4.80935275 -0.03282363 -2.86466931 0.04608047 0 0 Z " fill="#B63D4E" transform="translate(592.375,551.75)"/>
<path d="M0 0 C1.65 0.33 3.3 0.66 5 1 C5 2.32 5 3.64 5 5 C3.68 5 2.36 5 1 5 C0.34 6.65 -0.32 8.3 -1 10 C-2.46726798 6.18510326 -1.43336419 3.70988378 0 0 Z " fill="#B72536" transform="translate(640,552)"/>
<path d="M0 0 C0.66 0 1.32 0 2 0 C1.49452628 4.08055151 -0.50088882 5.66272295 -3.5625 8.25 C-4.38878906 8.95640625 -5.21507813 9.6628125 -6.06640625 10.390625 C-6.70449219 10.92171875 -7.34257813 11.4528125 -8 12 C-8.33 11.01 -8.66 10.02 -9 9 C-8.34 9 -7.68 9 -7 9 C-7 8.01 -7 7.02 -7 6 C-6.34 6 -5.68 6 -5 6 C-4.566875 5.0409375 -4.566875 5.0409375 -4.125 4.0625 C-3 2 -3 2 -1 1 C-0.67 0.67 -0.34 0.34 0 0 Z " fill="#1B1B1C" transform="translate(117,512)"/>
<path d="M0 0 C0.66 0.66 1.32 1.32 2 2 C1.8400431 5.03918116 1.12524274 6.801699 -0.5 9.375 C-4.30857116 11.85057125 -7.69473379 10.84633438 -12 10 C-12 9.67 -12 9.34 -12 9 C-10.329375 8.814375 -10.329375 8.814375 -8.625 8.625 C-4.96896323 8.3534187 -4.96896323 8.3534187 -3 6 C-2.01 6 -1.02 6 0 6 C0 4.02 0 2.04 0 0 Z " fill="#C63D4D" transform="translate(602,569)"/>
<path d="M0 0 C0.33 0.99 0.66 1.98 1 3 C0.01 3.495 0.01 3.495 -1 4 C-1.103125 4.5775 -1.20625 5.155 -1.3125 5.75 C-2.32911595 9.07710676 -4.42909222 10.74261756 -7 13 C-7.66 13 -8.32 13 -9 13 C-9 12.01 -9 11.02 -9 10 C-8.34 10 -7.68 10 -7 10 C-6.773125 9.46375 -6.54625 8.9275 -6.3125 8.375 C-4.56617944 5.21499137 -2.3597151 2.7323017 0 0 Z " fill="#CECFD1" transform="translate(177,470)"/>
<path d="M0 0 C0.99 0.33 1.98 0.66 3 1 C3.33 6.61 3.66 12.22 4 18 C4.99 18 5.98 18 7 18 C7 18.99 7 19.98 7 21 C5.35 21 3.7 21 2 21 C1.97494385 20.43490723 1.9498877 19.86981445 1.92407227 19.28759766 C1.80820044 16.73316258 1.68543463 14.1791045 1.5625 11.625 C1.52318359 10.73554687 1.48386719 9.84609375 1.44335938 8.9296875 C1.38051758 7.65351562 1.38051758 7.65351562 1.31640625 6.3515625 C1.27974854 5.56604004 1.24309082 4.78051758 1.20532227 3.97119141 C1.109109 1.92476504 1.109109 1.92476504 0 0 Z " fill="#115188" transform="translate(190,616)"/>
<path d="M0 0 C1.48831242 0.00667405 2.97660807 0.01863442 4.46484375 0.03515625 C5.22345703 0.03966797 5.98207031 0.04417969 6.76367188 0.04882812 C8.64326246 0.06064945 10.52281274 0.07858547 12.40234375 0.09765625 C12.73234375 0.75765625 13.06234375 1.41765625 13.40234375 2.09765625 C6.47234375 1.60265625 6.47234375 1.60265625 -0.59765625 1.09765625 C-0.92765625 1.75765625 -1.25765625 2.41765625 -1.59765625 3.09765625 C-2.58765625 3.59265625 -2.58765625 3.59265625 -3.59765625 4.09765625 C-3.92765625 5.08765625 -4.25765625 6.07765625 -4.59765625 7.09765625 C-5.25765625 7.09765625 -5.91765625 7.09765625 -6.59765625 7.09765625 C-4.37030726 0.1186294 -4.37030726 0.1186294 0 0 Z " fill="#FBD1D6" transform="translate(637.59765625,572.90234375)"/>
<path d="M0 0 C1.98 0.99 1.98 0.99 4 2 C3.67 2.66 3.34 3.32 3 4 C2.34 4 1.68 4 1 4 C1 10.93 1 17.86 1 25 C0.67 25 0.34 25 0 25 C0 16.75 0 8.5 0 0 Z " fill="#BAB9BB" transform="translate(834,504)"/>
<path d="M0 0 C4.28477792 2.30718811 7.72291137 4.32966073 11 8 C7.7 7.67 4.4 7.34 1 7 C1.33 5.35 1.66 3.7 2 2 C1.34 2 0.68 2 0 2 C0 1.34 0 0.68 0 0 Z " fill="#B41D28" transform="translate(362,511)"/>
<path d="M0 0 C0 0.66 0 1.32 0 2 C1.32 2.66 2.64 3.32 4 4 C3.67 4.99 3.34 5.98 3 7 C0.9375 7.6875 0.9375 7.6875 -1 8 C-1.33 7.01 -1.66 6.02 -2 5 C-2.66 4.34 -3.32 3.68 -4 3 C-4 2.34 -4 1.68 -4 1 C-2 0 -2 0 0 0 Z " fill="#131115" transform="translate(261,511)"/>
<path d="M0 0 C3.8063457 0.67170806 7.35206816 1.72746564 11 3 C10.01 3.33 9.02 3.66 8 4 C8.33 4.99 8.66 5.98 9 7 C6 7 6 7 4.39453125 5.46875 C3.87246094 4.8190625 3.35039062 4.169375 2.8125 3.5 C2.28269531 2.8503125 1.75289062 2.200625 1.20703125 1.53125 C0.80871094 1.0259375 0.41039062 0.520625 0 0 Z " fill="#BB3535" transform="translate(203,434)"/>
<path d="M0 0 C5.77759884 -0.12036664 11.27959989 0.1679418 17 1 C17 1.33 17 1.66 17 2 C10.74692761 2.83288874 5.23182639 3.03863773 -1 2 C-0.67 1.34 -0.34 0.68 0 0 Z " fill="#201E20" transform="translate(365,526)"/>
<path d="M0 0 C2.95064148 -0.2208564 5.68368231 -0.28060989 8.625 -0.1875 C9.42679687 -0.17396484 10.22859375 -0.16042969 11.0546875 -0.14648438 C13.03674378 -0.11109051 15.01845551 -0.05728234 17 0 C17.33 1.32 17.66 2.64 18 4 C17.34 4 16.68 4 16 4 C16 3.01 16 2.02 16 1 C13.72844502 1.08702126 11.45769257 1.19519522 9.1875 1.3125 C7.29064453 1.39951172 7.29064453 1.39951172 5.35546875 1.48828125 C2.03396307 1.7113494 2.03396307 1.7113494 0.05078125 3.54296875 C-0.29597656 4.02378906 -0.64273437 4.50460937 -1 5 C-1.33 4.34 -1.66 3.68 -2 3 C-1.34 2.01 -0.68 1.02 0 0 Z " fill="#FBCDD0" transform="translate(492,573)"/>
<path d="M0 0 C0.66 0.33 1.32 0.66 2 1 C1.01 3.31 0.02 5.62 -1 8 C-5 8 -5 8 -7 7 C-4.69 4.69 -2.38 2.38 0 0 Z " fill="#242426" transform="translate(170,449)"/>
<path d="M0 0 C0.99 0 1.98 0 3 0 C3.28875 0.78375 3.5775 1.5675 3.875 2.375 C4.84912254 5.09671632 4.84912254 5.09671632 7 7 C3.23375329 8.25541557 1.62811066 7.37061958 -2 6 C-1.34 5.01 -0.68 4.02 0 3 C0 2.01 0 1.02 0 0 Z " fill="#095DA8" transform="translate(258,633)"/>
<path d="M0 0 C1.32 0.33 2.64 0.66 4 1 C3.34 1.66 2.68 2.32 2 3 C1.62995706 5.22658154 1.62995706 5.22658154 1.5859375 7.7890625 C1.54726563 8.73007812 1.50859375 9.67109375 1.46875 10.640625 C1.4378125 11.62546875 1.406875 12.6103125 1.375 13.625 C1.33632813 14.61757813 1.29765625 15.61015625 1.2578125 16.6328125 C1.1633686 19.08835385 1.07780125 21.5438841 1 24 C0.67 24 0.34 24 0 24 C0 16.08 0 8.16 0 0 Z " fill="#BB0D12" transform="translate(432,553)"/>
<path d="M0 0 C0.33 0 0.66 0 1 0 C1 2.97 1 5.94 1 9 C1.99 9 2.98 9 4 9 C4 9.66 4 10.32 4 11 C1.03 10.505 1.03 10.505 -2 10 C-1.85950482 8.52031676 -1.71245174 7.04125484 -1.5625 5.5625 C-1.48128906 4.73878906 -1.40007813 3.91507813 -1.31640625 3.06640625 C-1 1 -1 1 0 0 Z " fill="#222022" transform="translate(832,520)"/>
<path d="M0 0 C3.96 0 7.92 0 12 0 C12 0.33 12 0.66 12 1 C10.02 1 8.04 1 6 1 C6 1.99 6 2.98 6 4 C3.69 4 1.38 4 -1 4 C-0.67 2.68 -0.34 1.36 0 0 Z " fill="#F4DADC" transform="translate(185,504)"/>
<path d="M0 0 C2.31 1.98 4.62 3.96 7 6 C5.02 6.99 5.02 6.99 3 8 C0.9375 6.25 0.9375 6.25 -1 4 C-0.67 2.68 -0.34 1.36 0 0 Z " fill="#28292B" transform="translate(253,498)"/>
<path d="M0 0 C4.62 0 9.24 0 14 0 C14 0.33 14 0.66 14 1 C11.69 1 9.38 1 7 1 C7 1.66 7 2.32 7 3 C6.34 3 5.68 3 5 3 C4.67 3.66 4.34 4.32 4 5 C4 4.34 4 3.68 4 3 C2.68 2.67 1.36 2.34 0 2 C0 1.34 0 0.68 0 0 Z " fill="#0C0C0E" transform="translate(859,484)"/>
<path d="M0 0 C1.7936743 1.1217963 3.5848773 2.24754483 5.375 3.375 C6.37273437 4.00148438 7.37046875 4.62796875 8.3984375 5.2734375 C11 7 11 7 13 9 C10.36 8.67 7.72 8.34 5 8 C5.33 7.01 5.66 6.02 6 5 C5.071875 4.7834375 5.071875 4.7834375 4.125 4.5625 C2 4 2 4 0 3 C0 2.01 0 1.02 0 0 Z " fill="#AC191E" transform="translate(290,464)"/>
<path d="M0 0 C2.46800047 1.15173355 4.04783565 2.04783565 6 4 C5.67 4.99 5.34 5.98 5 7 C3.35 6.67 1.7 6.34 0 6 C-1 3 -1 3 0 0 Z " fill="#0B0B0C" transform="translate(214,561)"/>
<path d="M0 0 C1.77433812 0.93084971 3.54435149 1.86994613 5.3125 2.8125 C6.29863281 3.33457031 7.28476562 3.85664063 8.30078125 4.39453125 C10.61665068 5.7719876 12.23611001 6.99530591 14 9 C13.01 9.495 13.01 9.495 12 10 C12 9.34 12 8.68 12 8 C11.484375 7.896875 10.96875 7.79375 10.4375 7.6875 C7.09125045 6.74368603 4.10071985 5.579612 1 4 C0.29296875 1.89453125 0.29296875 1.89453125 0 0 Z " fill="#AD1B21" transform="translate(346,501)"/>
<path d="M0 0 C0.99 0.99 1.98 1.98 3 3 C2.01 4.485 2.01 4.485 1 6 C-5.93 5.505 -5.93 5.505 -13 5 C-13 4.67 -13 4.34 -13 4 C-12.31292969 3.96261719 -11.62585938 3.92523438 -10.91796875 3.88671875 C-10.01691406 3.82097656 -9.11585938 3.75523437 -8.1875 3.6875 C-7.29417969 3.62949219 -6.40085937 3.57148438 -5.48046875 3.51171875 C-2.69396 2.93686419 -1.75864246 2.1793144 0 0 Z " fill="#4B4B4B" transform="translate(501,489)"/>
<path d="M0 0 C4.875 4.625 4.875 4.625 6 8 C2 8 2 8 0.1875 6.25 C-1 4 -1 4 -0.6875 1.75 C-0.460625 1.1725 -0.23375 0.595 0 0 Z " fill="#B5333C" transform="translate(449,573)"/>
<path d="M0 0 C0.66 0 1.32 0 2 0 C2 0.66 2 1.32 2 2 C2.66 2 3.32 2 4 2 C4.33 1.34 4.66 0.68 5 0 C5.99 0.33 6.98 0.66 8 1 C7.67 1.99 7.34 2.98 7 4 C4.36 4 1.72 4 -1 4 C-0.67 2.68 -0.34 1.36 0 0 Z " fill="#105BA6" transform="translate(265,566)"/>
<path d="M0 0 C2.31 1.98 4.62 3.96 7 6 C4 8 4 8 2 8 C0.74335022 5.09399739 0 3.20395416 0 0 Z " fill="#313130" transform="translate(226,468)"/>
<path d="M0 0 C0.66 0.66 1.32 1.32 2 2 C1.63318342 4.93453261 1.13562754 5.86437246 -1 8 C-3.1640625 8.1953125 -3.1640625 8.1953125 -5.625 8.125 C-6.44226563 8.10695313 -7.25953125 8.08890625 -8.1015625 8.0703125 C-8.72804688 8.04710937 -9.35453125 8.02390625 -10 8 C-10 7.67 -10 7.34 -10 7 C-6.7 6.34 -3.4 5.68 0 5 C0 3.35 0 1.7 0 0 Z " fill="#F9D3D6" transform="translate(598,570)"/>
<path d="M0 0 C2.375 0.3125 2.375 0.3125 5 1 C7 4 7 4 6.625 6.1875 C6.41875 6.785625 6.2125 7.38375 6 8 C1.2 4.55384615 1.2 4.55384615 0.1875 1.75 C0.125625 1.1725 0.06375 0.595 0 0 Z " fill="#2A292C" transform="translate(231,588)"/>
<path d="M0 0 C3.36720387 1.39332574 4.9859524 2.9789286 7 6 C6.34 6.66 5.68 7.32 5 8 C4.34 7.34 3.68 6.68 3 6 C1.67607028 4.98758315 0.34400833 3.98560611 -1 3 C-0.67 2.01 -0.34 1.02 0 0 Z " fill="#1C1C20" transform="translate(228,583)"/>
<path d="M0 0 C1.32 0 2.64 0 4 0 C3.67 3.3 3.34 6.6 3 10 C0 7 0 7 -0.1875 3.3125 C-0.125625 2.219375 -0.06375 1.12625 0 0 Z " fill="#B81829" transform="translate(556,553)"/>
<path d="M0 0 C-1.55500981 3.81684226 -4.03595495 6.19195732 -7 9 C-7.66 8.67 -8.32 8.34 -9 8 C-4.67567568 0 -4.67567568 0 0 0 Z " fill="#BAB7BB" transform="translate(194,458)"/>
<path d="M0 0 C2.50037734 2.17424117 3.43628586 3.73045798 4 7 C2.125 6.8125 2.125 6.8125 0 6 C-1.25 3.4375 -1.25 3.4375 -2 1 C-1.34 0.67 -0.68 0.34 0 0 Z " fill="#B9404C" transform="translate(505,560)"/>
<path d="M0 0 C1.98 0 3.96 0 6 0 C4.63016497 3.16115776 4.0109362 3.9927092 1 6 C0.67 4.02 0.34 2.04 0 0 Z " fill="#302E2E" transform="translate(390,543)"/>
<path d="M0 0 C2.375 0.3125 2.375 0.3125 5 1 C5.66 1.99 6.32 2.98 7 4 C5.35 4.33 3.7 4.66 2 5 C2 4.34 2 3.68 2 3 C1.34 3 0.68 3 0 3 C0 2.01 0 1.02 0 0 Z " fill="#1F1F1E" transform="translate(219,464)"/>
<path d="M0 0 C3.875 1.875 3.875 1.875 5 3 C5.04063832 4.66617115 5.042721 6.33388095 5 8 C2.5 5.6875 2.5 5.6875 0 3 C0 2.01 0 1.02 0 0 Z " fill="#29282B" transform="translate(279,640)"/>
<path d="M0 0 C0.66 0 1.32 0 2 0 C2.25 2.8125 2.25 2.8125 2 6 C0 7.875 0 7.875 -2 9 C-1.51421457 5.87709365 -1.0013988 3.00419641 0 0 Z " fill="#B51629" transform="translate(452,561)"/>
<path d="M0 0 C0 0.99 0 1.98 0 3 C0.66 3 1.32 3 2 3 C2 3.66 2 4.32 2 5 C-0.3431213 4.74438677 -2.67843403 4.40729228 -5 4 C-5.33 3.34 -5.66 2.68 -6 2 C-2.25 0 -2.25 0 0 0 Z " fill="#232022" transform="translate(592,526)"/>
<path d="M0 0 C1.65 1.65 3.3 3.3 5 5 C4.01 5.99 3.02 6.98 2 8 C0.4375 6.8125 0.4375 6.8125 -1 5 C-0.6875 2.3125 -0.6875 2.3125 0 0 Z " fill="#2B292E" transform="translate(849,514)"/>
<path d="M0 0 C2.31 0.33 4.62 0.66 7 1 C4.87219421 3.34058637 2.88437779 4.70700306 0 6 C0 4.02 0 2.04 0 0 Z " fill="#B2010B" transform="translate(275,442)"/>
<path d="M0 0 C2.5 2.3125 2.5 2.3125 5 5 C5 5.99 5 6.98 5 8 C3.0625 7.375 3.0625 7.375 1 6 C0.25 2.875 0.25 2.875 0 0 Z " fill="#2566A6" transform="translate(260,631)"/>
<path d="M0 0 C4.62 0.66 9.24 1.32 14 2 C14 2.33 14 2.66 14 3 C12.04174127 3.02694851 10.08337774 3.04637218 8.125 3.0625 C7.03445313 3.07410156 5.94390625 3.08570313 4.8203125 3.09765625 C2 3 2 3 0 2 C0 1.34 0 0.68 0 0 Z " fill="#B82939" transform="translate(462,552)"/>
<path d="M0 0 C0.66 0.33 1.32 0.66 2 1 C0.88121617 2.17262904 -0.24523051 3.33795138 -1.375 4.5 C-2.00148437 5.1496875 -2.62796875 5.799375 -3.2734375 6.46875 C-5 8 -5 8 -7 8 C-6.8125 6.1875 -6.8125 6.1875 -6 4 C-3.5 2.3125 -3.5 2.3125 -1 1 C-0.67 0.67 -0.34 0.34 0 0 Z " fill="#CACACD" transform="translate(165,484)"/>
<path d="M0 0 C1.32 1.65 2.64 3.3 4 5 C1 7 1 7 -2 7 C-2 3.89448334 -1.4606285 2.64738916 0 0 Z " fill="#EEDEDC" transform="translate(215,447)"/>
<path d="M0 0 C3.93846154 3.32307692 3.93846154 3.32307692 4.25 6.75 C4.1675 7.4925 4.085 8.235 4 9 C3.67 8.01 3.34 7.02 3 6 C2.34 6 1.68 6 1 6 C0.67 6.99 0.34 7.98 0 9 C0 6.03 0 3.06 0 0 Z " fill="#BC3B49" transform="translate(451,555)"/>
<path d="M0 0 C0.66 0 1.32 0 2 0 C2 0.66 2 1.32 2 2 C2.804375 2.268125 3.60875 2.53625 4.4375 2.8125 C5.7059375 3.4003125 5.7059375 3.4003125 7 4 C7.33 4.99 7.66 5.98 8 7 C7.01 7 6.02 7 5 7 C0 1.53488372 0 1.53488372 0 0 Z " fill="#BF2426" transform="translate(233,466)"/>
<path d="M0 0 C1.65 0 3.3 0 5 0 C5.33 0.99 5.66 1.98 6 3 C8.01508358 3.73323796 8.01508358 3.73323796 10 4 C9.01 4.495 9.01 4.495 8 5 C6.0546875 4.22265625 6.0546875 4.22265625 3.875 3.0625 C3.15054688 2.68222656 2.42609375 2.30195312 1.6796875 1.91015625 C1.12539062 1.60980469 0.57109375 1.30945313 0 1 C0 0.67 0 0.34 0 0 Z " fill="#246295" transform="translate(206,604)"/>
<path d="M0 0 C4.455 0.99 4.455 0.99 9 2 C9 2.33 9 2.66 9 3 C6.03 3 3.06 3 0 3 C0 2.01 0 1.02 0 0 Z " fill="#9D1621" transform="translate(587,564)"/>
<path d="M0 0 C2.35953094 2.35953094 2.49141413 3.77895617 3 7 C2.01 7.33 1.02 7.66 0 8 C-0.66 6.02 -1.32 4.04 -2 2 C-1.34 2 -0.68 2 0 2 C0 1.34 0 0.68 0 0 Z " fill="#BB3D4C" transform="translate(645,555)"/>
<path d="M0 0 C0 0.66 0 1.32 0 2 C-1.53125 3.2890625 -1.53125 3.2890625 -3.5 4.625 C-4.1496875 5.07101562 -4.799375 5.51703125 -5.46875 5.9765625 C-5.9740625 6.31429687 -6.479375 6.65203125 -7 7 C-7.66 6.67 -8.32 6.34 -9 6 C-7.8803014 4.99406757 -6.7540588 3.9954151 -5.625 3 C-4.68527344 2.1646875 -4.68527344 2.1646875 -3.7265625 1.3125 C-2 0 -2 0 0 0 Z " fill="#CCCDCE" transform="translate(117,529)"/>
<path d="M0 0 C4.62 0 9.24 0 14 0 C13.01 0.495 13.01 0.495 12 1 C12 1.66 12 2.32 12 3 C6.06 2.01 6.06 2.01 0 1 C0 0.67 0 0.34 0 0 Z " fill="#151517" transform="translate(682,515)"/>
<path d="M0 0 C0.66 0 1.32 0 2 0 C2 1.98 2 3.96 2 6 C0.68 6 -0.64 6 -2 6 C-1.34 4.02 -0.68 2.04 0 0 Z " fill="#DBDAD8" transform="translate(644,509)"/>
<path d="M0 0 C2.375 0.1875 2.375 0.1875 5 1 C6.3125 3.5625 6.3125 3.5625 7 6 C6.01 6 5.02 6 4 6 C1.8125 3 1.8125 3 0 0 Z " fill="#BB242A" transform="translate(273,510)"/>
<path d="M0 0 C0.6875 1.6875 0.6875 1.6875 1 4 C-0.25 6.75 -0.25 6.75 -2 9 C-2.99 9 -3.98 9 -5 9 C-3.25 4.125 -3.25 4.125 -1 3 C-0.67 2.01 -0.34 1.02 0 0 Z " fill="#2E2D30" transform="translate(504,503)"/>
<path d="M0 0 C0.66 0 1.32 0 2 0 C1.67 3.63 1.34 7.26 1 11 C0.67 11 0.34 11 0 11 C-0.19491452 9.54263913 -0.38069358 8.08405407 -0.5625 6.625 C-0.66691406 5.81289063 -0.77132812 5.00078125 -0.87890625 4.1640625 C-1 2 -1 2 0 0 Z " fill="#211F22" transform="translate(552,497)"/>
<path d="M0 0 C2 1.375 2 1.375 4 3 C4 3.66 4 4.32 4 5 C2.68 5.33 1.36 5.66 0 6 C-0.66 4.68 -1.32 3.36 -2 2 C-1.34 1.34 -0.68 0.68 0 0 Z " fill="#292829" transform="translate(514,488)"/>
<path d="M0 0 C0 1.65 0 3.3 0 5 C-1.32 5.33 -2.64 5.66 -4 6 C-3.625 3.5625 -3.625 3.5625 -3 1 C-1 0 -1 0 0 0 Z " fill="#AF3F48" transform="translate(490,575)"/>
<path d="M0 0 C0.99 0.99 1.98 1.98 3 3 C2.67 3.66 2.34 4.32 2 5 C0.35 4.67 -1.3 4.34 -3 4 C-3 3.34 -3 2.68 -3 2 C-2.01 2 -1.02 2 0 2 C0 1.34 0 0.68 0 0 Z " fill="#2064A9" transform="translate(197,561)"/>
<path d="M0 0 C0.99 0 1.98 0 3 0 C3 0.99 3 1.98 3 3 C2.34 3 1.68 3 1 3 C0.67 3.99 0.34 4.98 0 6 C-0.66 6 -1.32 6 -2 6 C-1.34 4.02 -0.68 2.04 0 0 Z " fill="#B1202F" transform="translate(498,553)"/>
<path d="M0 0 C3.96 0 7.92 0 12 0 C11.67 1.65 11.34 3.3 11 5 C10.34 4.01 9.68 3.02 9 2 C6.80545319 1.42006301 6.80545319 1.42006301 4.375 1.3125 C3.55773437 1.24675781 2.74046875 1.18101562 1.8984375 1.11328125 C1.27195312 1.07589844 0.64546875 1.03851562 0 1 C0 0.67 0 0.34 0 0 Z " fill="#B51E27" transform="translate(657,553)"/>
<path d="M0 0 C0.66 0 1.32 0 2 0 C2 3.63 2 7.26 2 11 C1.67 11 1.34 11 1 11 C0.87625 9.88625 0.7525 8.7725 0.625 7.625 C0.3534187 3.96896323 0.3534187 3.96896323 -2 2 C-1.34 1.34 -0.68 0.68 0 0 Z " fill="#414042" transform="translate(815,520)"/>
<path d="M0 0 C1.65 0 3.3 0 5 0 C5.33 2.31 5.66 4.62 6 7 C1.125 2.25 1.125 2.25 0 0 Z " fill="#BA151E" transform="translate(255,490)"/>
<path d="M0 0 C0.99 0.99 1.98 1.98 3 3 C1.68 3.99 0.36 4.98 -1 6 C-1.66 5.01 -2.32 4.02 -3 3 C-2.01 2.01 -1.02 1.02 0 0 Z " fill="#202021" transform="translate(148,482)"/>
<path d="M0 0 C1.98 0.99 1.98 0.99 4 2 C4 2.99 4 3.98 4 5 C2.68 4.67 1.36 4.34 0 4 C0 2.68 0 1.36 0 0 Z " fill="#1E201F" transform="translate(247,592)"/>
<path d="M0 0 C-0.33 1.65 -0.66 3.3 -1 5 C-2.32 5 -3.64 5 -5 5 C-5 4.01 -5 3.02 -5 2 C-2 0 -2 0 0 0 Z " fill="#F6DAD6" transform="translate(487,576)"/>
<path d="M0 0 C0 0.99 0 1.98 0 3 C-0.99 3.33 -1.98 3.66 -3 4 C-4.32 2.68 -5.64 1.36 -7 0 C-3.98968256 -0.93423645 -3.13349732 -1.04449911 0 0 Z " fill="#2264A4" transform="translate(114,563)"/>
<path d="M0 0 C0.33 0.66 0.66 1.32 1 2 C0.34 2 -0.32 2 -1 2 C-1.2475 2.804375 -1.495 3.60875 -1.75 4.4375 C-2.1625 5.283125 -2.575 6.12875 -3 7 C-5.078125 7.66015625 -5.078125 7.66015625 -7 8 C-6.21366078 6.85050412 -5.42073742 5.70551011 -4.625 4.5625 C-4.18414062 3.92441406 -3.74328125 3.28632813 -3.2890625 2.62890625 C-2 1 -2 1 0 0 Z " fill="#E1E1E2" transform="translate(149,495)"/>
<path d="M0 0 C1.65 0 3.3 0 5 0 C4.625 2.4375 4.625 2.4375 4 5 C3.01 5.495 3.01 5.495 2 6 C1.34 4.02 0.68 2.04 0 0 Z " fill="#161518" transform="translate(721,485)"/>
<path d="M0 0 C1.98 0 3.96 0 6 0 C5.01 0.495 5.01 0.495 4 1 C4 1.66 4 2.32 4 3 C4.99 3.33 5.98 3.66 7 4 C6.34 4.66 5.68 5.32 5 6 C3.35 4.02 1.7 2.04 0 0 Z " fill="#BD2225" transform="translate(247,482)"/>
<path d="M0 0 C2.31 0.66 4.62 1.32 7 2 C6.34 3.32 5.68 4.64 5 6 C3.35 4.02 1.7 2.04 0 0 Z " fill="#BD1F22" transform="translate(225,458)"/>
</svg>
